<svg width="235" height="60" viewBox="0 0 235 60" fill="none" xmlns="http://www.w3.org/2000/svg">
<path d="M83.855 36.195V26.43C83.855 23.6767 84.6017 21.6583 86.095 20.375C87.5883 19.0683 89.5367 18.415 91.94 18.415C94.39 18.415 96.385 19.0217 97.925 20.235C99.4883 21.4483 100.27 23.0583 100.27 25.065C100.27 25.9283 100.095 26.5233 99.745 26.85C99.395 27.1533 98.8117 27.305 97.995 27.305C96.5017 27.305 95.7433 26.8267 95.72 25.87C95.6967 25.5667 95.6617 25.31 95.615 25.1C95.5917 24.8667 95.4983 24.575 95.335 24.225C95.195 23.8517 95.0083 23.5483 94.775 23.315C94.5417 23.0583 94.1917 22.8483 93.725 22.685C93.2583 22.4983 92.71 22.405 92.08 22.405C89.63 22.405 88.405 23.7467 88.405 26.43V36.195C88.405 38.8783 89.6533 40.22 92.15 40.22C92.8967 40.22 93.515 40.1033 94.005 39.87C94.5183 39.6367 94.88 39.31 95.09 38.89C95.3233 38.4467 95.475 38.0617 95.545 37.735C95.6383 37.385 95.6967 36.965 95.72 36.475C95.79 35.5183 96.5367 35.04 97.96 35.04C98.7767 35.04 99.36 35.2033 99.71 35.53C100.083 35.8333 100.27 36.4167 100.27 37.28C100.27 39.38 99.4883 41.06 97.925 42.32C96.385 43.58 94.3783 44.21 91.905 44.21C89.5017 44.21 87.5533 43.5683 86.06 42.285C84.59 40.9783 83.855 38.9483 83.855 36.195ZM110.063 36.195V26.43C110.063 23.6533 110.798 21.6233 112.268 20.34C113.761 19.0567 115.756 18.415 118.253 18.415C120.75 18.415 122.745 19.0567 124.238 20.34C125.731 21.6233 126.478 23.6533 126.478 26.43V36.195C126.478 38.9717 125.731 41.0017 124.238 42.285C122.745 43.5683 120.75 44.21 118.253 44.21C115.756 44.21 113.761 43.5683 112.268 42.285C110.798 41.0017 110.063 38.9717 110.063 36.195ZM114.613 36.195C114.613 38.8783 115.826 40.22 118.253 40.22C120.703 40.22 121.928 38.8783 121.928 36.195V26.43C121.928 23.7467 120.703 22.405 118.253 22.405C115.826 22.405 114.613 23.7467 114.613 26.43V36.195ZM137.092 36.195V26.43C137.092 23.6767 137.827 21.6583 139.297 20.375C140.791 19.0683 142.739 18.415 145.142 18.415C147.616 18.415 149.622 19.0217 151.162 20.235C152.726 21.4483 153.507 23.0817 153.507 25.135C153.507 25.975 153.321 26.5467 152.947 26.85C152.597 27.1533 152.026 27.305 151.232 27.305C149.739 27.305 148.981 26.8267 148.957 25.87C148.887 24.8433 148.596 24.015 148.082 23.385C147.569 22.7317 146.647 22.405 145.317 22.405C142.867 22.405 141.642 23.7467 141.642 26.43V36.195C141.642 38.8783 142.856 40.22 145.282 40.22C146.449 40.22 147.347 39.8817 147.977 39.205C148.631 38.5283 148.957 37.525 148.957 36.195V34.13H146.122C145.679 34.13 145.329 33.955 145.072 33.605C144.839 33.255 144.722 32.835 144.722 32.345C144.722 31.8783 144.851 31.47 145.107 31.12C145.364 30.7467 145.702 30.56 146.122 30.56H152.072C152.516 30.56 152.866 30.7117 153.122 31.015C153.379 31.295 153.507 31.6333 153.507 32.03V36.195C153.507 38.9717 152.761 41.0017 151.267 42.285C149.774 43.5683 147.779 44.21 145.282 44.21C142.786 44.21 140.791 43.5683 139.297 42.285C137.827 41.0017 137.092 38.9717 137.092 36.195ZM164.128 42.565V19.85C164.128 19.4067 164.327 19.0567 164.723 18.8C165.12 18.5433 165.587 18.415 166.123 18.415H178.583C179.05 18.415 179.4 18.6133 179.633 19.01C179.89 19.4067 180.018 19.8617 180.018 20.375C180.018 20.935 179.89 21.4133 179.633 21.81C179.377 22.2067 179.027 22.405 178.583 22.405H168.678V29.405H173.998C174.442 29.405 174.792 29.5917 175.048 29.965C175.305 30.315 175.433 30.735 175.433 31.225C175.433 31.6683 175.305 32.0767 175.048 32.45C174.815 32.8 174.465 32.975 173.998 32.975H168.678V40.01H178.583C179.027 40.01 179.377 40.2083 179.633 40.605C179.89 41.0017 180.018 41.48 180.018 42.04C180.018 42.5533 179.89 43.0083 179.633 43.405C179.4 43.8017 179.05 44 178.583 44H166.123C165.587 44 165.12 43.8717 164.723 43.615C164.327 43.3583 164.128 43.0083 164.128 42.565ZM189.688 42.565V19.85C189.688 19.3833 189.91 19.0333 190.353 18.8C190.796 18.5433 191.333 18.415 191.963 18.415C192.803 18.415 193.445 18.5667 193.888 18.87C194.331 19.1733 194.821 19.8267 195.358 20.83L202.113 33.885V19.815C202.113 19.3483 202.335 18.9983 202.778 18.765C203.221 18.5317 203.758 18.415 204.388 18.415C205.018 18.415 205.555 18.5317 205.998 18.765C206.441 18.9983 206.663 19.3483 206.663 19.815V42.565C206.663 43.0083 206.43 43.3583 205.963 43.615C205.52 43.8717 204.995 44 204.388 44C203.151 44 202.276 43.5217 201.763 42.565L194.238 28.495V42.565C194.238 43.0083 194.005 43.3583 193.538 43.615C193.095 43.8717 192.57 44 191.963 44C191.333 44 190.796 43.8717 190.353 43.615C189.91 43.3583 189.688 43.0083 189.688 42.565ZM216.199 20.445C216.199 19.9083 216.316 19.4417 216.549 19.045C216.806 18.625 217.168 18.415 217.634 18.415H232.439C232.906 18.415 233.256 18.625 233.489 19.045C233.746 19.4417 233.874 19.9083 233.874 20.445C233.874 21.005 233.746 21.495 233.489 21.915C233.233 22.3117 232.883 22.51 232.439 22.51H227.329V42.565C227.329 43.0083 227.096 43.3583 226.629 43.615C226.186 43.8717 225.661 44 225.054 44C224.424 44 223.888 43.8717 223.444 43.615C223.001 43.3583 222.779 43.0083 222.779 42.565V22.51H217.634C217.191 22.51 216.841 22.3117 216.584 21.915C216.328 21.5183 216.199 21.0283 216.199 20.445Z" fill="#E8E8E8"/>
<g clip-path="url(#clip0)">
<path d="M18.3872 59.1211C16.9146 59.1211 15.7976 57.7771 16.0853 56.3329C17.3807 49.8319 23.1182 44.9326 29.9999 44.9326C36.8816 44.9326 42.6191 49.832 43.9145 56.3329C44.2023 57.7771 43.0853 59.1211 41.6126 59.1211H18.3872Z" fill="#89BEB3"/>
<path d="M32.9289 45.2379C31.9838 45.0381 31.004 44.9326 30 44.9326C23.1328 44.9326 17.3872 49.841 16.087 56.3316C15.7977 57.776 16.9154 59.1211 18.3886 59.1211H21.6708C21.6709 52.3048 26.5078 46.5927 32.9289 45.2379Z" fill="#89BEB3"/>
<path d="M39.2726 53.1445C41.8614 53.1445 43.9601 51.0459 43.9601 48.457C43.9601 45.8682 41.8614 43.7695 39.2726 43.7695C36.6837 43.7695 34.5851 45.8682 34.5851 48.457C34.5851 51.0459 36.6837 53.1445 39.2726 53.1445Z" fill="#F7EF87"/>
<path d="M20.7274 53.1445C23.3163 53.1445 25.4149 51.0459 25.4149 48.457C25.4149 45.8682 23.3163 43.7695 20.7274 43.7695C18.1386 43.7695 16.0399 45.8682 16.0399 48.457C16.0399 51.0459 18.1386 53.1445 20.7274 53.1445Z" fill="#F7EF87"/>
<path d="M26.1328 53.2105L24.3547 46.394H35.6439L33.8672 53.2105H26.1328Z" fill="#FFBF9E"/>
<path d="M33.7014 56.3512C36.9033 53.573 37.5265 49.0367 37.5365 46.394H35.6439L29.9993 53.2105L31.952 56.1246C32.3466 56.7135 33.1661 56.8158 33.7014 56.3512Z" fill="#89BEB3"/>
<path d="M26.2972 56.3512C23.0953 53.573 22.4722 49.0367 22.4622 46.394H24.3547L29.9993 53.2105L28.0466 56.1246C27.652 56.7135 26.8325 56.8158 26.2972 56.3512Z" fill="#89BEB3"/>
<path d="M48.1789 31.6689C50.5141 31.6689 52.4072 29.7758 52.4072 27.4406C52.4072 25.1055 50.5141 23.2124 48.1789 23.2124C45.8437 23.2124 43.9507 25.1055 43.9507 27.4406C43.9507 29.7758 45.8437 31.6689 48.1789 31.6689Z" fill="#FFBF9E"/>
<path d="M11.8207 31.6689C14.1559 31.6689 16.0489 29.7758 16.0489 27.4406C16.0489 25.1055 14.1559 23.2124 11.8207 23.2124C9.48552 23.2124 7.59247 25.1055 7.59247 27.4406C7.59247 29.7758 9.48552 31.6689 11.8207 31.6689Z" fill="#F7AB8B"/>
<path d="M49.5524 30.1688C49.2553 29.1769 48.3425 28.4976 47.3072 28.4976H30H12.6928C11.6575 28.4976 10.7447 29.1769 10.4476 30.1688C8.52515 36.5864 11.54 43.457 17.572 46.3719C20.7504 47.9079 24.8401 49.0341 29.9999 49.0341C35.1598 49.0341 39.2495 47.9079 42.4278 46.3719C48.46 43.457 51.4748 36.5865 49.5524 30.1688Z" fill="#383C43"/>
<path d="M24.9298 46.3721C18.8978 43.457 15.8829 36.5865 17.8053 30.1688L18.306 28.4976H12.6929C11.6576 28.4976 10.7448 29.1769 10.4477 30.1688C8.52527 36.5864 11.5402 43.457 17.5721 46.3721C20.7505 47.908 24.8402 49.0342 30 49.0342C31.2926 49.0342 32.518 48.9634 33.6787 48.8333C30.206 48.4442 27.3118 47.5233 24.9298 46.3721Z" fill="#282D35"/>
<path d="M46.9918 29.3276C46.9614 24.1063 44.6106 19.4733 40.9216 16.3862L19.0948 16.3974C15.3739 19.5144 13.0078 24.1954 13.0078 29.429C13.0078 29.4735 13.0079 29.518 13.0083 29.5626C13.0357 33.1166 15.9411 35.9765 19.4952 35.9765H40.5045C44.0766 35.9765 46.9738 33.0886 46.9918 29.5166C46.9923 29.4537 46.9923 29.3906 46.9918 29.3276Z" fill="#FFD4BE"/>
<path d="M25.0054 16.3975L40.9252 16.3893C40.924 16.3883 40.9228 16.3873 40.9216 16.3862L19.0948 16.3974C15.3739 19.5146 13.0078 24.1955 13.0078 29.4291C13.0078 29.4736 13.0079 29.5181 13.0083 29.5627C13.0357 33.1167 15.9411 35.9766 19.4952 35.9766H20.0003C19.279 33.4251 18.9184 31.4722 18.9184 29.4291C18.9184 24.1955 21.2845 19.5146 25.0054 16.3975Z" fill="#FFBF9E"/>
<path d="M30 0.878906C17.984 0.878906 15.9798 10.6684 9.39233 12.3656C8.2944 12.6485 7.61729 13.7505 7.84885 14.8604L9.72385 23.8477H50.276L52.1511 14.8604C52.3827 13.7505 51.7056 12.6485 50.6076 12.3656C44.0202 10.6684 42.0159 0.878906 30 0.878906Z" fill="#89BEB3"/>
<path d="M28.2459 21.5037C16.3831 18.3912 16.3254 7.29627 20.623 3.58447C16.0851 6.614 13.7338 11.2469 9.39233 12.3654C8.2944 12.6483 7.61729 13.7504 7.84885 14.8603L9.72385 23.8475H28.2459V21.5037Z" fill="#89BEB3"/>
<path d="M35.8594 10.2886C35.8594 6.97381 33.1069 4.30193 29.763 4.43389C26.7451 4.55295 24.2842 6.99806 24.1469 10.0151C24.0322 12.5337 25.509 14.7206 27.6563 15.659C27.6563 16.9318 28.6881 17.9636 29.9609 17.9636H30.039C31.3118 17.9636 32.3437 16.9318 32.3437 15.659C34.4128 14.7547 35.8594 12.6911 35.8594 10.2886Z" fill="white"/>
<path d="M28.8344 10.0151C28.9378 7.74138 30.3613 5.79302 32.348 4.91974C31.5613 4.57521 30.6849 4.39743 29.7628 4.43388C26.745 4.55294 24.2841 6.99806 24.1467 10.0151C24.0321 12.5335 25.5089 14.7206 27.6562 15.659C27.6562 16.9318 28.688 17.9638 29.9609 17.9638H30.039C31.3118 17.9638 32.3436 16.9319 32.3436 15.659C30.1965 14.7206 28.7199 12.5336 28.8344 10.0151Z" fill="#FCF2D0"/>
<path d="M27.3693 12.7783C26.8839 12.7783 26.4904 12.3848 26.4904 11.8994V10.4932C26.4904 10.0078 26.8839 9.61426 27.3693 9.61426C27.8547 9.61426 28.2482 10.0078 28.2482 10.4932V11.8994C28.2482 12.3849 27.8547 12.7783 27.3693 12.7783Z" fill="black"/>
<path d="M32.6306 12.7783C32.1451 12.7783 31.7517 12.3848 31.7517 11.8994V10.4932C31.7517 10.0078 32.1451 9.61426 32.6306 9.61426C33.1161 9.61426 33.5095 10.0078 33.5095 10.4932V11.8994C33.5095 12.3849 33.1161 12.7783 32.6306 12.7783Z" fill="black"/>
<path d="M52.2656 25.0195H7.73438C6.43992 25.0195 5.39062 23.9702 5.39062 22.6758C5.39062 21.3813 6.43992 20.332 7.73438 20.332H52.2656C53.5601 20.332 54.6094 21.3813 54.6094 22.6758C54.6094 23.9702 53.5601 25.0195 52.2656 25.0195Z" fill="#89BEB3"/>
<path d="M25.9022 22.6758C25.9022 21.3813 26.9515 20.332 28.2459 20.332H7.73438C6.43992 20.332 5.39062 21.3813 5.39062 22.6758C5.39062 23.9702 6.43992 25.0195 7.73438 25.0195H28.2459C26.9515 25.0195 25.9022 23.9702 25.9022 22.6758Z" fill="#89BEB3"/>
<path d="M24.2946 29.1929L21.4745 28.4373C21.0063 28.312 20.5238 28.5899 20.398 29.0588C20.2724 29.5277 20.5506 30.0096 21.0195 30.1353L21.8489 30.3576C21.8194 30.4455 21.8028 30.5394 21.8028 30.6374V31.8521C21.8028 32.3375 22.1963 32.731 22.6817 32.731C23.167 32.731 23.5606 32.3375 23.5606 31.8521V30.8163L23.8396 30.8911C23.9158 30.9115 23.9923 30.9212 24.0676 30.9212C24.4556 30.9212 24.8108 30.6622 24.9161 30.2695C25.0418 29.8005 24.7636 29.3186 24.2946 29.1929Z" fill="black"/>
<path d="M39.6019 29.0588C39.4764 28.59 38.9945 28.312 38.5254 28.4373L35.7053 29.1929C35.2365 29.3185 34.9583 29.8005 35.0839 30.2694C35.189 30.6621 35.5442 30.9211 35.9322 30.9211C36.0076 30.9211 36.0841 30.9113 36.1602 30.8909L36.4393 30.8162V31.852C36.4393 32.3374 36.8327 32.7309 37.3182 32.7309C37.8037 32.7309 38.1971 32.3374 38.1971 31.852V30.6372C38.1971 30.5394 38.1804 30.4455 38.1509 30.3576L38.9805 30.1353C39.4493 30.0096 39.7276 29.5277 39.6019 29.0588Z" fill="black"/>
<path d="M17.0194 33.9283C19.0273 35.938 22.2844 35.9387 24.2932 33.93C25.8216 32.4016 28.2996 32.4016 29.828 33.93L29.8407 33.9426C31.369 35.471 31.369 37.949 29.8407 39.4774L29.0765 40.2416C25.9042 43.4138 20.761 43.4138 17.5887 40.2416C16.0534 38.7063 15.2612 36.7093 15.2121 34.6975C15.1888 33.7443 16.3455 33.2539 17.0194 33.9283Z" fill="#4E5660"/>
<path d="M42.9806 33.9283C40.9727 35.938 37.7156 35.9387 35.7068 33.93C34.1784 32.4016 31.7003 32.4016 30.172 33.93L30.1593 33.9426C28.631 35.471 28.631 37.949 30.1593 39.4774L30.9235 40.2416C34.0958 43.4138 39.239 43.4138 42.4113 40.2416C43.9466 38.7063 44.7387 36.7093 44.7878 34.6975C44.8112 33.7443 43.6545 33.2539 42.9806 33.9283Z" fill="#4E5660"/>
<path d="M26.8296 16.235C27.1014 17.7165 28.4022 18.8426 29.961 18.8426H30.0392C31.5982 18.8426 32.8991 17.7162 33.1706 16.2345C35.3541 15.0699 36.7383 12.7901 36.7383 10.2886C36.7383 8.43833 36.0035 6.71298 34.6693 5.43036C33.3359 4.14833 31.5805 3.48352 29.7283 3.55559C26.2637 3.69223 23.4265 6.512 23.2689 9.97501C23.1489 12.6128 24.5323 15.0155 26.8296 16.235ZM25.0248 10.0549C25.1413 7.49638 27.2377 5.41302 29.7975 5.312C29.8657 5.3093 29.9336 5.30802 30.0013 5.30802C31.2961 5.30802 32.5145 5.79716 33.4511 6.69751C34.4373 7.64555 34.9805 8.92091 34.9805 10.2885C34.9805 12.2681 33.8073 14.06 31.9917 14.8536C31.6718 14.9934 31.4649 15.3096 31.4649 15.659C31.4649 16.445 30.8252 17.0848 30.039 17.0848H29.9609C29.1748 17.0848 28.5351 16.4452 28.5351 15.659C28.5351 15.3096 28.3282 14.9934 28.0081 14.8536C26.1012 14.0201 24.9301 12.1365 25.0248 10.0549Z" fill="black"/>
<path d="M55.4883 22.6758C55.4883 20.8988 54.0425 19.4531 52.2656 19.4531H52.0908L53.0115 15.04C53.3406 13.4634 52.3809 11.9149 50.8269 11.5145C48.4932 10.9132 46.7593 9.16055 44.7518 7.13109C41.4452 3.78855 37.6975 0 30 0C22.3025 0 18.5546 3.78855 15.2481 7.13121C13.2405 9.16055 11.5068 10.9132 9.17297 11.5145C7.61895 11.9149 6.65941 13.4634 6.98836 15.0398L7.90922 19.4531H7.73438C5.95734 19.4531 4.51172 20.8988 4.51172 22.6758C4.51172 24.1931 5.56617 25.4681 6.98051 25.8086C6.80461 26.3303 6.71355 26.8802 6.71355 27.4407C6.71355 29.238 7.66207 30.8911 9.17461 31.8088C8.7402 34.5491 9.09656 37.3754 10.2224 39.9375C11.3657 42.5392 13.2466 44.7369 15.6083 46.2702C15.3146 46.9577 15.1611 47.7008 15.1611 48.457C15.1611 49.8981 15.7117 51.2128 16.6133 52.2025C15.9663 53.4516 15.4986 54.7806 15.2235 56.1612C15.0355 57.1042 15.2787 58.0727 15.8905 58.8185C16.5066 59.5695 17.4165 60.0001 18.3873 60.0001H41.6128C42.5836 60.0001 43.4937 59.5695 44.1097 58.8185C44.7216 58.0727 44.9646 57.1043 44.7766 56.1613C44.5014 54.7801 44.0344 53.4511 43.3874 52.202C44.2887 51.2125 44.839 49.898 44.839 48.4571C44.839 47.7021 44.6858 46.9582 44.3921 46.2704C45.3943 45.6216 46.3117 44.8553 47.1286 43.9747C47.4587 43.6188 47.438 43.0628 47.0821 42.7327C46.7263 42.4024 46.1701 42.4233 45.84 42.7792C44.7599 43.9434 43.4834 44.886 42.0455 45.5808C38.5104 47.2891 34.4577 48.1554 30 48.1554C25.5423 48.1554 21.4896 47.2891 17.9545 45.5808C12.2824 42.8396 9.47941 36.4641 11.2896 30.4211C11.4197 29.9869 11.7319 29.6522 12.129 29.4881L12.1294 29.5696C12.1444 31.5179 12.9448 33.3865 14.3348 34.7489C14.3987 37.0581 15.3325 39.2285 16.9671 40.8632C18.6674 42.5634 20.9279 43.4999 23.3324 43.4999C25.7368 43.4999 27.9975 42.5636 29.6978 40.8632L30 40.5609L30.3021 40.863C32.0024 42.5633 34.2629 43.4998 36.6674 43.4998C39.0721 43.4998 41.3326 42.5633 43.0327 40.863C44.6691 39.2268 45.6032 37.0537 45.6654 34.742C47.06 33.3696 47.8608 31.4851 47.8707 29.5216C47.8707 29.5104 47.8707 29.4994 47.8707 29.4881C48.268 29.6522 48.5803 29.9869 48.7103 30.4212C49.6905 33.6935 49.337 37.1521 47.7144 40.1597C47.4839 40.587 47.6435 41.12 48.0707 41.3505C48.2033 41.4221 48.3463 41.4561 48.4871 41.4561C48.7998 41.4561 49.1026 41.2888 49.2614 40.9944C50.7969 38.148 51.3323 34.9468 50.827 31.8077C52.3383 30.8898 53.286 29.2376 53.286 27.441C53.286 26.8802 53.1948 26.3305 53.019 25.8089C54.4336 25.4684 55.4883 24.1932 55.4883 22.6758ZM42.7507 57.7035C42.4699 58.0458 42.0551 58.2422 41.6128 58.2422H18.3872C17.9449 58.2422 17.5302 58.0459 17.2494 57.7035C16.9729 57.3663 16.8627 56.9293 16.9473 56.5047C17.1676 55.3988 17.5295 54.3311 18.021 53.3187C18.8228 53.7668 19.7455 54.0234 20.7275 54.0234C21.5532 54.0234 22.3543 53.8433 23.0882 53.4988C23.6958 54.7663 24.5423 55.9921 25.7213 57.015C26.0998 57.3434 26.5816 57.5212 27.0756 57.5212C27.1661 57.5212 27.2571 57.5153 27.3479 57.5031C27.9295 57.4254 28.4504 57.1011 28.7769 56.6138L29.9994 54.7893L31.2219 56.6139C31.5485 57.1014 32.0694 57.4255 32.6511 57.5032C32.7418 57.5154 32.8328 57.5212 32.9232 57.5212C33.4171 57.5212 33.8991 57.3432 34.2775 57.0149C35.4561 55.9922 36.3034 54.7675 36.9117 53.4984C37.6458 53.8431 38.4472 54.0233 39.2727 54.0233C40.2546 54.0233 41.1775 53.7668 41.9791 53.3186C42.4705 54.3308 42.8324 55.3984 43.0527 56.5045C43.1373 56.9293 43.0273 57.3663 42.7507 57.7035ZM25.926 49.6695L28.9042 53.2659L27.3164 55.6354C27.2565 55.7249 27.1737 55.753 27.1147 55.7609C27.0639 55.7679 26.9652 55.7672 26.8731 55.6874C24.8491 53.9313 23.9711 51.3994 23.5997 49.2946C24.3607 49.448 25.1361 49.5732 25.926 49.6695ZM36.3993 49.2948C36.0258 51.4144 35.1442 53.9355 33.1253 55.6874C33.0333 55.7673 32.9343 55.768 32.8838 55.7609C32.8248 55.753 32.742 55.7248 32.682 55.6354L31.0944 53.2659L34.0724 49.6697C34.8625 49.5735 35.6381 49.4481 36.3993 49.2948ZM42.8104 47.1634C42.8228 47.1574 42.8346 47.1506 42.847 47.1446C43.0002 47.5627 43.0812 48.0066 43.0812 48.457C43.0812 50.557 41.3727 52.2656 39.2726 52.2656C38.6735 52.2656 38.0933 52.127 37.5673 51.8627C37.9109 50.8181 38.1202 49.789 38.2451 48.8609C39.8405 48.4275 41.3648 47.862 42.8104 47.1634ZM31.6205 49.8746L29.9993 51.8324L28.3781 49.8746C28.9133 49.8994 29.4536 49.9131 30 49.9131C30.546 49.9131 31.0857 49.8994 31.6205 49.8746ZM21.7539 48.8605C21.8782 49.7837 22.0876 50.8141 22.4329 51.8631C21.9069 52.1272 21.3268 52.2655 20.7275 52.2655C18.6275 52.2655 16.9189 50.5569 16.9189 48.4569C16.9189 48.0057 16.9991 47.562 17.1523 47.1441C17.1649 47.1502 17.1771 47.1571 17.1898 47.1632C18.6348 47.8617 20.1588 48.4271 21.7539 48.8605ZM9.60574 29.9166C9.60305 29.9257 9.60059 29.935 9.59777 29.9442C8.89441 29.3181 8.47137 28.4119 8.47137 27.4407C8.47137 26.8985 8.6025 26.3727 8.84906 25.8984H12.4796C12.3635 26.4783 12.2754 27.0643 12.2171 27.6547C10.9898 27.8339 9.97113 28.6969 9.60574 29.9166ZM18.2101 39.62C16.8891 38.2989 16.1364 36.543 16.0908 34.676C16.0901 34.647 16.088 34.5587 16.1975 34.5117C16.2728 34.4794 16.3403 34.492 16.3977 34.5496C17.5349 35.6876 19.0471 36.3146 20.6558 36.3149H20.6572C22.2655 36.3149 23.7775 35.6886 24.9148 34.5513C25.488 33.9782 26.2501 33.6625 27.0607 33.6625C27.7034 33.6625 28.3151 33.8616 28.8268 34.2294C27.9007 35.7606 27.9083 37.7012 28.8491 39.2259L28.4551 39.6199C25.6304 42.4446 21.0346 42.4446 18.2101 39.62ZM43.9092 34.676C43.8636 36.5432 43.1109 38.299 41.7898 39.62C40.4216 40.9883 38.6025 41.7418 36.6674 41.7418C34.7324 41.7418 32.9133 40.9883 31.545 39.62L30.7808 38.856C29.5976 37.6727 29.5976 35.7475 30.7793 34.5656L30.7935 34.5516C31.3666 33.9784 32.1287 33.6627 32.9393 33.6627C33.75 33.6627 34.5121 33.9784 35.0852 34.5516C36.2225 35.6889 37.7344 36.3151 39.3429 36.3151H39.3443C40.9532 36.3148 42.4654 35.6878 43.6024 34.5497C43.6596 34.4924 43.727 34.4794 43.8025 34.5118C43.9121 34.5587 43.9099 34.6471 43.9092 34.676ZM44.8158 33.072C44.7156 33.0046 44.6088 32.9448 44.4946 32.8959C43.7609 32.5816 42.9224 32.7431 42.3588 33.3073C41.5537 34.113 40.4829 34.5571 39.3437 34.5573C39.3434 34.5573 39.3431 34.5573 39.3428 34.5573C38.2039 34.5573 37.1333 34.1139 36.3281 33.3087C35.4229 32.4034 34.2195 31.9049 32.9392 31.9049C31.8601 31.9049 30.8362 32.2603 29.9996 32.9129C29.1625 32.26 28.1389 31.9049 27.0604 31.9049C25.7802 31.9049 24.5767 32.4034 23.6715 33.3087C22.8662 34.114 21.7958 34.5573 20.6569 34.5573C20.6566 34.5573 20.6562 34.5573 20.6559 34.5573C19.5169 34.5571 18.4461 34.113 17.6409 33.3073C17.0773 32.7431 16.2391 32.5816 15.5052 32.8959C15.3893 32.9456 15.281 33.0064 15.1795 33.075C14.361 32.0904 13.897 30.8462 13.8871 29.556L13.8866 29.4291C13.8866 28.2367 14.0173 27.0516 14.2748 25.8984H45.7286C45.9761 27.019 46.106 28.1714 46.1128 29.334C46.1133 29.3934 46.1133 29.4527 46.1129 29.5123C46.1064 30.8181 45.6404 32.0775 44.8158 33.072ZM50.4021 29.944C50.3994 29.9348 50.397 29.9257 50.3943 29.9167C50.0291 28.6975 49.0111 27.8347 47.7844 27.655C47.7267 27.0642 47.6399 26.4779 47.5249 25.8984H51.1504C51.397 26.3726 51.5282 26.8983 51.5282 27.4407C51.5283 28.4119 51.1054 29.3179 50.4021 29.944ZM52.2656 24.1406H7.73438C6.9266 24.1406 6.26953 23.4836 6.26953 22.6758C6.26953 21.868 6.9266 21.2109 7.73438 21.2109H13.4539C13.9393 21.2109 14.3329 20.8174 14.3329 20.332C14.3329 19.8466 13.9393 19.4531 13.4539 19.4531H9.70488L8.70914 14.6809C8.57238 14.0255 8.96871 13.3823 9.61148 13.2168C12.4151 12.4944 14.3982 10.4898 16.4978 8.36742C19.7122 5.11793 23.0362 1.75781 30 1.75781C36.9637 1.75781 40.2877 5.11793 43.5022 8.36742C45.6018 10.4898 47.5849 12.4944 50.3885 13.2168C51.0313 13.3825 51.4276 14.0255 51.2909 14.681L50.2952 19.4531H16.9696C16.4842 19.4531 16.0907 19.8466 16.0907 20.332C16.0907 20.8174 16.4842 21.2109 16.9696 21.2109H52.2656C53.0734 21.2109 53.7305 21.868 53.7305 22.6758C53.7305 23.4836 53.0734 24.1406 52.2656 24.1406Z" fill="black"/>
</g>
<defs>
<clipPath id="clip0">
<rect width="60" height="60" fill="white"/>
</clipPath>
</defs>
</svg>
