<svg width="75" height="75" viewBox="0 0 75 75" fill="none" xmlns="http://www.w3.org/2000/svg">
<g filter="url(#filter0_d)">
<circle cx="37.5" cy="33.5" r="17.5" fill="#625261"/>
</g>
<path d="M31.1774 30.6807H34.1785V39.7098H31.1774V30.6807Z" fill="white"/>
<path d="M32.6978 26.4741C31.6712 26.4741 31 27.1482 31 28.0342C31 28.9007 31.6512 29.594 32.6584 29.594H32.6779C33.7245 29.594 34.3759 28.9007 34.3759 28.0342C34.3563 27.1482 33.7245 26.4741 32.6978 26.4741Z" fill="white"/>
<path d="M41.6344 30.4688C40.042 30.4688 39.3285 31.3439 38.9297 31.9592V30.6807H35.9285V39.7098H38.9296V34.6674C38.9296 34.3975 38.9491 34.1281 39.0284 33.9351C39.2453 33.396 39.7391 32.8376 40.5682 32.8376C41.6541 32.8376 42.0885 33.6656 42.0885 34.8794V39.7098H45.0894V34.5326C45.0894 31.7592 43.6088 30.4688 41.6344 30.4688Z" fill="white"/>
<defs>
<filter id="filter0_d" x="0" y="0" width="75" height="75" filterUnits="userSpaceOnUse" color-interpolation-filters="sRGB">
<feFlood flood-opacity="0" result="BackgroundImageFix"/>
<feColorMatrix in="SourceAlpha" type="matrix" values="0 0 0 0 0 0 0 0 0 0 0 0 0 0 0 0 0 0 127 0"/>
<feOffset dy="4"/>
<feGaussianBlur stdDeviation="10"/>
<feColorMatrix type="matrix" values="0 0 0 0 0 0 0 0 0 0 0 0 0 0 0 0 0 0 0.2 0"/>
<feBlend mode="normal" in2="BackgroundImageFix" result="effect1_dropShadow"/>
<feBlend mode="normal" in="SourceGraphic" in2="effect1_dropShadow" result="shape"/>
</filter>
</defs>
</svg>
