<svg width="500" height="500" viewBox="0 0 500 500" fill="none" xmlns="http://www.w3.org/2000/svg">
<path d="M468.19 291.66C468.19 291.66 468.19 291.41 468.13 290.92C468.07 290.43 468.05 289.7 467.99 288.76C467.99 288.28 467.93 287.76 467.9 287.16C467.87 286.56 467.71 285.94 467.61 285.25C467.51 284.56 467.39 283.82 467.26 283.03C467.107 282.19 466.91 281.359 466.67 280.54C465.601 276.269 463.896 272.183 461.61 268.42C458.606 263.41 454.664 259.027 450 255.51L448 254.05C447.31 253.59 446.58 253.18 445.86 252.74C445.14 252.3 444.43 251.81 443.64 251.45L441.28 250.32L440.08 249.75L438.82 249.29L436.26 248.36C435.4 248.07 434.49 247.89 433.59 247.64C432.685 247.383 431.767 247.176 430.84 247.02C428.941 246.667 427.02 246.446 425.09 246.36C424.09 246.36 423.09 246.23 422.09 246.24L419.09 246.4C418.59 246.4 418.09 246.4 417.57 246.49L416.06 246.73C415.06 246.9 414.06 247.01 413 247.22C410.948 247.684 408.927 248.279 406.95 249L405.44 249.55C405.19 249.65 404.93 249.73 404.68 249.84L403.96 250.19L401.02 251.6C400.02 252.12 399.14 252.73 398.19 253.29C397.73 253.59 397.19 253.84 396.79 254.18L395.45 255.18C393.64 256.526 391.919 257.989 390.3 259.56L387.99 262.1L387.41 262.74L386.89 263.43L385.89 264.82L384.89 266.22L383.97 267.71L383.06 269.22L382.6 269.97C382.46 270.23 382.34 270.5 382.21 270.77C381.7 271.83 381.21 272.9 380.67 273.97L379.44 277.33C376.316 286.628 376.316 296.692 379.44 305.99L380.67 309.35C381.18 310.42 381.67 311.49 382.21 312.55L382.6 313.35L383.06 314.1L383.97 315.61L384.88 317.1L385.88 318.5L386.88 319.89L387.4 320.58L387.98 321.22L390.29 323.76C391.907 325.333 393.628 326.797 395.44 328.14L396.78 329.14C397.22 329.48 397.72 329.73 398.18 330.03C399.13 330.59 400.05 331.2 401.01 331.72L403.95 333.14L404.67 333.49L405.43 333.77L406.94 334.32C408.914 335.05 410.935 335.645 412.99 336.1C413.99 336.31 415.04 336.43 416.05 336.6L417.57 336.83C418.07 336.9 418.57 336.89 419.08 336.93L422.08 337.08C423.08 337.08 424.08 337 425.08 336.97C427.01 336.88 428.931 336.656 430.83 336.3C431.759 336.155 432.678 335.948 433.58 335.68C434.48 335.44 435.39 335.25 436.26 334.96L438.82 334.03L440.08 333.57L441.28 333L443.64 331.87C444.42 331.51 445.12 331 445.85 330.59C446.58 330.18 447.3 329.73 447.99 329.28L449.99 327.81C454.639 324.291 458.564 319.908 461.55 314.9C463.838 311.142 465.544 307.059 466.61 302.79C466.81 301.9 467.11 301.09 467.2 300.3C467.29 299.51 467.44 298.76 467.55 298.07C467.66 297.38 467.78 296.75 467.84 296.16C467.9 295.57 467.9 295.05 467.93 294.57C467.99 293.63 468.04 292.91 468.07 292.4C468.1 291.89 468.13 291.66 468.13 291.66C468.13 291.66 468.13 291.91 468.13 292.4L468.05 294.58C468.05 295.05 468 295.58 467.98 296.18C467.96 296.78 467.81 297.4 467.72 298.09C467.63 298.78 467.5 299.53 467.39 300.33C467.24 301.173 467.047 302.007 466.81 302.83C465.784 307.137 464.097 311.259 461.81 315.05C458.831 320.112 454.895 324.544 450.22 328.1L448.22 329.59C447.53 330.05 446.8 330.47 446.07 330.92C445.34 331.37 444.63 331.85 443.84 332.22L441.46 333.37L440.25 333.94L438.98 334.41L436.4 335.36C435.53 335.65 434.61 335.84 433.7 336.09C432.791 336.36 431.866 336.573 430.93 336.73C429.015 337.09 427.077 337.317 425.13 337.41C424.13 337.41 423.13 337.55 422.13 337.54L419.13 337.39C418.62 337.39 418.13 337.39 417.6 337.29L416.07 337.06C415.07 336.89 414 336.77 412.98 336.56C410.9 336.097 408.852 335.499 406.85 334.77L405.33 334.22C405.07 334.12 404.82 334.04 404.57 333.93L403.83 333.58L400.83 332.15C399.83 331.63 398.93 331.02 397.97 330.45C397.5 330.15 396.97 329.89 396.55 329.55L395.2 328.55C393.364 327.193 391.621 325.717 389.98 324.13L387.65 321.56L387.06 320.91L386.53 320.22L385.48 318.81L384.42 317.4L383.49 315.89L382.57 314.37L382.11 313.6L381.71 312.8C381.203 311.72 380.683 310.64 380.15 309.56C379.74 308.43 379.32 307.3 378.9 306.16C375.742 296.751 375.742 286.569 378.9 277.16C379.32 276.02 379.73 274.89 380.15 273.76C380.57 272.63 381.15 271.59 381.71 270.52C381.84 270.25 381.96 269.98 382.1 269.72L382.56 268.95L383.49 267.43L384.41 265.92L385.47 264.51L386.52 263.1L387.05 262.41L387.64 261.76L389.97 259.19C391.613 257.605 393.356 256.129 395.19 254.77L396.54 253.77C396.99 253.43 397.49 253.18 397.96 252.88C398.96 252.31 399.85 251.7 400.82 251.17L403.82 249.75L404.56 249.39L405.32 249.11L406.84 248.55C408.842 247.821 410.89 247.223 412.97 246.76C413.97 246.55 415.03 246.44 416.05 246.27L417.59 246.04C418.09 245.97 418.59 245.97 419.12 245.94L422.12 245.79C423.12 245.79 424.12 245.87 425.12 245.91C427.067 246.007 429.005 246.237 430.92 246.6C431.855 246.754 432.78 246.965 433.69 247.23C434.6 247.48 435.51 247.67 436.39 247.96L438.97 248.91L440.24 249.38L441.45 249.96L443.83 251.11C444.62 251.47 445.32 251.98 446.06 252.41C446.8 252.84 447.52 253.28 448.21 253.74L450.21 255.22C454.875 258.766 458.81 263.18 461.8 268.22C464.086 272.012 465.772 276.133 466.8 280.44C467.037 281.263 467.23 282.097 467.38 282.94C467.49 283.74 467.6 284.49 467.71 285.18C467.82 285.87 467.92 286.51 467.97 287.1C468.02 287.69 468.02 288.22 468.04 288.7C468.04 289.64 468.1 290.37 468.12 290.87C468.14 291.37 468.19 291.66 468.19 291.66Z" fill="#E0E0E0"/>
<path d="M108.53 158.38C144.716 158.38 174.05 129.046 174.05 92.86C174.05 56.6743 144.716 27.34 108.53 27.34C72.3443 27.34 43.01 56.6743 43.01 92.86C43.01 129.046 72.3443 158.38 108.53 158.38Z" fill="#F5F5F5"/>
<path d="M442.52 229.35C456.184 229.35 467.26 218.274 467.26 204.61C467.26 190.946 456.184 179.87 442.52 179.87C428.856 179.87 417.78 190.946 417.78 204.61C417.78 218.274 428.856 229.35 442.52 229.35Z" fill="#E0E0E0"/>
<path d="M62.8153 183.318C72.7754 178.939 77.3003 167.316 72.9219 157.356C68.5434 147.396 56.9198 142.871 46.9596 147.249C36.9995 151.627 32.4746 163.251 36.853 173.211C41.2315 183.171 52.8551 187.696 62.8153 183.318Z" fill="#EBEBEB"/>
<path d="M197 47.3C196.909 46.5504 196.779 45.806 196.61 45.07C196.289 43.8488 195.716 42.7082 194.929 41.7211C194.141 40.734 193.156 39.9221 192.037 39.3376C190.918 38.753 189.689 38.4086 188.429 38.3263C187.169 38.2441 185.906 38.4259 184.72 38.86C183.904 39.15 183.138 39.5649 182.45 40.09C181.723 40.6233 181.086 41.2679 180.56 42C179.429 43.5358 178.82 45.3929 178.82 47.3C178.82 49.2071 179.429 51.0642 180.56 52.6C181.607 54.0341 183.054 55.1265 184.72 55.74C186.23 56.2873 187.858 56.4287 189.44 56.15C190.823 55.8985 192.128 55.3266 193.25 54.48C194.894 53.2542 196.078 51.5105 196.61 49.53C196.78 48.7942 196.91 48.0498 197 47.3C197.059 48.0653 196.995 48.8351 196.81 49.58C196.332 51.6476 195.151 53.4853 193.47 54.78C192.312 55.6786 190.959 56.2919 189.52 56.57C187.849 56.8934 186.123 56.7622 184.52 56.19C182.756 55.555 181.221 54.4098 180.11 52.9C178.905 51.2814 178.255 49.3176 178.255 47.3C178.255 45.2824 178.905 43.3186 180.11 41.7C180.665 40.9306 181.341 40.2554 182.11 39.7C182.842 39.1558 183.651 38.7243 184.51 38.42C186.113 37.8478 187.839 37.7166 189.51 38.04C190.948 38.3203 192.301 38.9333 193.46 39.83C195.142 41.1246 196.322 42.9624 196.8 45.03C196.987 45.7711 197.055 46.5375 197 47.3Z" fill="#E0E0E0"/>
<path d="M58.68 444.68V473.99H101.53H148.8V444.68H58.68Z" fill="#F5F5F5"/>
<path d="M54.9 436.49V444.68H151.95V436.49H101.53H54.9Z" fill="#E0E0E0"/>
<path d="M103.42 473.99H148.8V444.68H151.95V436.49H101.53V443.92L103.42 473.99Z" fill="#E0E0E0"/>
<path d="M89.56 449.41H71.28V453.82H89.56V449.41Z" fill="#E0E0E0"/>
<path d="M92.4 459.33H68.93V468.65H92.4V459.33Z" fill="white"/>
<path d="M72.54 407.22V436.53H115.4H162.67V407.22H72.54Z" fill="#F5F5F5"/>
<path d="M68.76 399.03V407.22H165.82V399.03H115.4H68.76Z" fill="#E0E0E0"/>
<path d="M117.29 436.53H162.67V407.22H165.82V399.03H115.4V406.46L117.29 436.53Z" fill="#E0E0E0"/>
<path d="M103.43 411.95H85.15V416.36H103.43V411.95Z" fill="#E0E0E0"/>
<path d="M106.27 421.87H82.8V431.19H106.27V421.87Z" fill="white"/>
<path d="M437.15 401.44C441.204 399.541 445.759 398.987 450.15 399.86C452.5 400.25 454.96 400.96 456.56 402.73C458.16 404.5 458.47 407.61 456.63 409.13C455.437 409.923 454.005 410.276 452.58 410.13C449.15 410.13 445.34 409.48 442.58 411.55C441.02 412.73 439.98 414.68 438.1 415.26C437.165 415.478 436.185 415.385 435.308 414.995C434.431 414.605 433.705 413.94 433.24 413.1C432.35 411.379 432.153 409.382 432.69 407.52C432.918 406.232 433.438 405.015 434.212 403.96C434.985 402.906 435.99 402.044 437.15 401.44Z" fill="#EBEBEB"/>
<path d="M428.11 384C430.52 387.44 435.21 386.3 437.39 384.2C439.57 382.1 440.49 379.04 441.32 376.13C443.24 369.48 445.17 362.51 443.74 355.74C443.4 353.686 442.5 351.766 441.14 350.19C440.45 349.415 439.569 348.835 438.584 348.508C437.599 348.182 436.546 348.12 435.53 348.33C433.16 348.95 431.69 351.27 430.63 353.48C427.494 359.988 425.854 367.116 425.83 374.34C425.83 377.7 426.21 381.22 428.11 384Z" fill="#EBEBEB"/>
<path d="M421.47 388.92C424.1 385.81 424.59 381.27 423.47 377.38C422.142 373.506 419.776 370.071 416.63 367.45C413.054 364.27 408.894 361.818 404.38 360.23C402.634 359.519 400.753 359.198 398.87 359.29C397.93 359.343 397.017 359.626 396.211 360.115C395.406 360.603 394.732 361.281 394.25 362.09C392.96 364.55 394.19 367.53 395.53 369.96C397.887 374.249 400.579 378.345 403.58 382.21C405.99 385.32 408.75 388.39 412.42 389.79C416.09 391.19 419.92 391.03 421.86 388.48" fill="#EBEBEB"/>
<path d="M427.94 436C428.073 435.49 428.147 434.967 428.16 434.44C428.27 433.29 428.41 431.86 428.58 430.16C428.806 428.051 429.14 425.955 429.58 423.88C430.144 421.357 430.906 418.883 431.86 416.48C432.799 414.08 434.071 411.824 435.64 409.78C436.914 408.106 438.548 406.739 440.42 405.78C441.68 405.155 443.03 404.73 444.42 404.52C444.946 404.498 445.469 404.424 445.98 404.3C445.452 404.242 444.918 404.242 444.39 404.3C442.936 404.413 441.513 404.786 440.19 405.4C438.239 406.332 436.528 407.701 435.19 409.4C433.555 411.475 432.234 413.78 431.27 416.24C430.297 418.675 429.541 421.192 429.01 423.76C428.599 425.861 428.318 427.985 428.17 430.12C428.04 431.93 427.98 433.4 427.96 434.42C427.902 434.945 427.895 435.474 427.94 436Z" fill="#E0E0E0"/>
<path d="M428.24 432.71C428.264 432.467 428.264 432.223 428.24 431.98C428.24 431.44 428.24 430.75 428.24 429.9C428.24 428.1 428.24 425.49 428.34 422.26C428.5 415.81 429.05 408.87 430.12 399.09C431.12 389.88 432.5 379.17 433.94 372.21C434.25 370.63 434.56 369.21 434.85 367.95C435.14 366.69 435.37 365.62 435.6 364.75L436.09 362.75C436.164 362.517 436.205 362.275 436.21 362.03C436.106 362.252 436.022 362.483 435.96 362.72C435.8 363.24 435.6 363.9 435.36 364.72C435.12 365.54 434.82 366.65 434.5 367.9C434.18 369.15 433.83 370.56 433.5 372.14C431.723 380.376 430.388 388.701 429.5 397.08C428.43 406.89 427.94 415.82 427.9 422.29C427.9 425.52 427.9 428.14 428.01 429.94C428.06 430.79 428.11 431.47 428.14 432.02C428.144 432.253 428.178 432.485 428.24 432.71Z" fill="#E0E0E0"/>
<path d="M428.28 415.49C428.343 414.768 428.343 414.042 428.28 413.32C428.161 411.347 427.941 409.381 427.62 407.43C427.142 404.54 426.504 401.679 425.71 398.86C424.774 395.39 423.574 391.997 422.12 388.71C419.631 382.651 416.064 377.094 411.59 372.31C410.813 371.491 409.985 370.723 409.11 370.01C408.73 369.69 408.4 369.37 408.05 369.11L407.05 368.45C406.475 368.008 405.862 367.617 405.22 367.28C407.331 368.935 409.335 370.722 411.22 372.63C415.559 377.459 419.04 382.996 421.51 389C422.93 392.25 424.132 395.591 425.11 399C425.918 401.795 426.586 404.628 427.11 407.49C427.56 409.94 427.82 411.93 427.97 413.32C428.019 414.05 428.123 414.775 428.28 415.49Z" fill="#E0E0E0"/>
<path d="M411.63 445.87L413.36 469.51H443.73L445.46 445.87H411.63Z" fill="#E0E0E0"/>
<path d="M449.08 436.55H408.7V445.87H449.08V436.55Z" fill="#E0E0E0"/>
<path d="M408.7 468.61V471.19H410.6H448.42V468.61H408.7Z" fill="#EBEBEB"/>
<path d="M412.46 475.74L410.6 471.19H446.97L444.8 475.74H412.46Z" fill="#E0E0E0"/>
<path d="M444.89 453.6C444.854 453.677 444.807 453.748 444.75 453.81L444.3 454.42L442.53 456.68L442.45 456.78L442.37 456.68L438.03 450.68H438.28L434 456.72L433.86 456.91L433.71 456.74C432.13 454.86 430.42 452.81 428.64 450.74H428.93L428.65 451.09C427.08 453.09 425.55 454.98 424.11 456.78L423.96 456.97L423.82 456.78L419.54 450.72H419.79L414.52 456.72L414.42 456.82L414.35 456.7L412.7 453.93L412.28 453.19C412.223 453.111 412.179 453.023 412.15 452.93C412.214 453.001 412.271 453.078 412.32 453.16L412.79 453.87L414.53 456.6H414.36L419.55 450.52L419.68 450.37L419.8 450.53C421.11 452.37 422.56 454.39 424.12 456.53H423.83L428.36 450.83L428.64 450.48L428.78 450.3L428.93 450.47C430.7 452.6 432.41 454.64 433.99 456.52H433.71L438.03 450.52L438.15 450.34L438.28 450.52L442.53 456.59H442.38L444.22 454.38L444.71 453.81C444.83 453.663 444.89 453.593 444.89 453.6Z" fill="#F5F5F5"/>
<path d="M445.88 445.71C445.88 445.82 438.27 445.9 428.88 445.9C419.49 445.9 411.88 445.82 411.88 445.71C411.88 445.6 419.49 445.52 428.88 445.52C438.27 445.52 445.88 445.61 445.88 445.71Z" fill="#F5F5F5"/>
<path d="M447.42 471.45C447.42 471.55 439.14 471.64 428.94 471.64C418.74 471.64 410.47 471.55 410.47 471.45C410.47 471.35 418.74 471.26 428.94 471.26C439.14 471.26 447.42 471.34 447.42 471.45Z" fill="#F5F5F5"/>
<path d="M187.36 424.66H127.47V432.89H187.36V424.66Z" fill="#263238"/>
<path d="M187.46 433H127.37V424.57H187.46V433ZM127.58 432.8H187.26V424.8H127.58V432.8Z" fill="#263238"/>
<path d="M133.03 430.15L141.65 472.68H173.54L181.87 432.89L133.03 430.15Z" fill="#263238"/>
<path d="M133.03 468.66L137.62 474.98H176.39L181.87 468.66H133.03Z" fill="#455A64"/>
<path d="M155.17 431.39C155.05 431.39 154.9 411.69 154.83 387.39C154.76 363.09 154.83 343.39 154.92 343.39C155.01 343.39 155.19 363.09 155.26 387.39C155.33 411.69 155.29 431.39 155.17 431.39Z" fill="#263238"/>
<path d="M168.51 382.09C168.474 382.249 168.42 382.403 168.35 382.55L167.81 383.82L167.42 384.74C167.3 385.09 167.17 385.46 167.02 385.86C166.87 386.26 166.72 386.69 166.56 387.14C166.4 387.59 166.28 388.09 166.12 388.61C165.402 391.014 164.841 393.463 164.44 395.94C163.976 398.979 163.669 402.04 163.52 405.11C163.291 410.698 163.448 416.294 163.99 421.86C164.18 424 164.38 425.72 164.52 426.92C164.58 427.48 164.63 427.92 164.67 428.29C164.694 428.453 164.694 428.618 164.67 428.78C164.619 428.624 164.582 428.463 164.56 428.3C164.5 427.95 164.43 427.49 164.33 426.94C164.14 425.75 163.9 424.03 163.67 421.89C163.046 416.313 162.845 410.697 163.07 405.09C163.235 402.001 163.569 398.923 164.07 395.87C164.492 393.383 165.083 390.927 165.84 388.52C166.01 388 166.14 387.52 166.31 387.05L166.81 385.78C166.96 385.38 167.11 385.01 167.24 384.66C167.37 384.31 167.54 384.03 167.67 383.76L168.28 382.51C168.41 382.23 168.49 382.08 168.51 382.09Z" fill="#263238"/>
<path d="M167 366.16C167 366.16 166.94 366.38 166.81 366.8C166.68 367.22 166.44 367.87 166.18 368.64C166.04 369.04 165.89 369.48 165.73 369.96C165.58 370.45 165.42 370.96 165.24 371.55C164.89 372.69 164.49 373.98 164.13 375.44C163.93 376.173 163.73 376.933 163.53 377.72C163.33 378.507 163.14 379.337 162.96 380.21C162.55 381.92 162.24 383.79 161.86 385.73C161.2 389.65 160.62 393.97 160.22 398.54C159.82 403.11 159.67 407.47 159.61 411.43C159.55 415.39 159.61 418.98 159.82 421.98C159.82 423.48 159.96 424.84 160.04 425.98C160.12 427.12 160.19 428.19 160.26 429.03C160.33 429.87 160.37 430.48 160.41 430.96C160.434 431.186 160.434 431.414 160.41 431.64C160.359 431.419 160.322 431.196 160.3 430.97C160.25 430.49 160.17 429.85 160.08 429.05C159.99 428.25 159.88 427.19 159.78 426C159.68 424.81 159.57 423.45 159.49 421.95C159.29 418.95 159.21 415.36 159.2 411.38C159.19 407.4 159.39 403.03 159.77 398.45C160.15 393.87 160.77 389.54 161.45 385.61C161.85 383.61 162.16 381.8 162.6 380.08C162.8 379.22 163 378.39 163.19 377.59C163.38 376.79 163.61 376.04 163.82 375.31C164.2 373.85 164.62 372.56 165 371.43L165.51 369.84L166.01 368.53C166.3 367.78 166.53 367.17 166.71 366.72C166.784 366.523 166.882 366.335 167 366.16Z" fill="#263238"/>
<path d="M151.38 434.88C151.368 434.804 151.368 434.726 151.38 434.65C151.38 434.47 151.38 434.25 151.32 433.97C151.28 433.337 151.22 432.467 151.14 431.36C151 429.06 150.79 425.79 150.54 421.76C150.02 413.66 149.27 402.47 147.91 390.16C147.21 384.01 146.4 378.16 145.56 372.86C145.12 370.22 144.71 367.7 144.25 365.36C143.79 363.02 143.38 360.84 142.96 358.85C142.54 356.86 142.13 355.08 141.77 353.51C141.41 351.94 141.09 350.59 140.77 349.51C140.45 348.43 140.3 347.58 140.15 346.97C140.09 346.69 140.04 346.48 140 346.3C139.99 346.224 139.99 346.146 140 346.07C140.033 346.141 140.06 346.215 140.08 346.29C140.08 346.46 140.19 346.68 140.27 346.94C140.44 347.55 140.67 348.39 140.97 349.46C141.27 350.53 141.64 351.9 141.97 353.46C142.3 355.02 142.8 356.81 143.21 358.8C143.62 360.79 144.12 362.96 144.56 365.31C145 367.66 145.45 370.16 145.91 372.81C146.77 378.11 147.59 383.96 148.29 390.12C149.66 402.45 150.36 413.65 150.8 421.76C151.02 425.81 151.18 429.09 151.27 431.36C151.27 432.47 151.34 433.36 151.37 433.98C151.37 434.25 151.37 434.48 151.37 434.66C151.383 434.733 151.387 434.807 151.38 434.88Z" fill="#263238"/>
<path d="M154.68 352.86C154.42 350.07 151.6 347.96 148.8 347.93C147.395 347.995 146.023 348.377 144.787 349.047C143.55 349.718 142.481 350.659 141.66 351.8C140.052 354.104 138.889 356.689 138.23 359.42C136.187 365.973 135.47 372.867 136.12 379.7C136.93 386.5 139.68 393.18 144.56 397.98C145.35 398.76 146.38 399.55 147.46 399.31C148.047 399.138 148.578 398.813 149 398.37C153.77 393.998 157.552 388.658 160.092 382.706C162.633 376.755 163.873 370.329 163.73 363.86C163.811 361.26 163.171 358.688 161.88 356.43C160.45 354.28 157.11 352 154.68 352.86Z" fill="#89BEB3"/>
<path d="M133.75 330.5L129.8 337.65C129.71 337.82 129.59 338.01 129.4 338.02C129.21 338.03 129.03 337.84 128.92 337.67L118.48 321.67L120.89 320.31L133.75 330.5Z" fill="#89BEB3"/>
<g opacity="0.2">
<path opacity="0.2" d="M133.75 330.5L129.8 337.65C129.71 337.82 129.59 338.01 129.4 338.02C129.21 338.03 129.03 337.84 128.92 337.67L118.48 321.67L120.89 320.31L133.75 330.5Z" fill="black"/>
</g>
<path d="M154.92 343.39L119.31 322.39C118.922 322.216 118.615 321.902 118.45 321.51C118.31 320.99 118.7 320.51 119.08 320.09C121.524 317.552 124.486 315.571 127.765 314.28C131.044 312.989 134.562 312.42 138.08 312.61C141.6 312.863 145.006 313.97 148.002 315.834C150.999 317.699 153.497 320.264 155.28 323.31C158.72 329.45 158.83 337.57 154.89 343.4" fill="#89BEB3"/>
<path d="M124.45 315.67L124.91 315.61C125.22 315.61 125.67 315.54 126.26 315.55C127.915 315.528 129.569 315.659 131.2 315.94C136.622 316.861 141.668 319.314 145.743 323.008C149.818 326.702 152.753 331.484 154.2 336.79C154.646 338.386 154.944 340.02 155.09 341.67C155.124 342.002 155.141 342.336 155.14 342.67C155.112 342.948 155.019 343.215 154.87 343.45C154.972 342.855 154.989 342.249 154.92 341.65C154.717 340.022 154.382 338.414 153.92 336.84C152.437 331.608 149.513 326.898 145.481 323.249C141.45 319.599 136.473 317.157 131.12 316.2C129.506 315.896 127.871 315.719 126.23 315.67C125.09 315.69 124.45 315.71 124.45 315.67Z" fill="#263238"/>
<path d="M150.1 328.89C149.533 329.229 148.929 329.501 148.3 329.7C147.17 330.15 145.58 330.7 143.81 331.29C142.04 331.88 140.41 332.29 139.23 332.59C138.596 332.785 137.942 332.909 137.28 332.96C137.875 332.676 138.499 332.455 139.14 332.3L143.68 330.88L148.2 329.42C148.813 329.178 149.45 329 150.1 328.89Z" fill="#263238"/>
<path d="M144.49 313.83C144.814 315.138 144.959 316.483 144.92 317.83C145.017 319.167 144.943 320.512 144.7 321.83C144.518 320.505 144.448 319.167 144.49 317.83C144.381 316.499 144.381 315.161 144.49 313.83Z" fill="#263238"/>
<path d="M119 322C119.838 321.628 120.704 321.324 121.59 321.09C123.21 320.59 125.46 319.96 127.97 319.35C130.48 318.74 132.78 318.29 134.44 317.99C135.334 317.789 136.244 317.668 137.16 317.63C136.289 317.911 135.401 318.131 134.5 318.29C132.85 318.66 130.58 319.17 128.07 319.77C125.56 320.37 123.31 320.96 121.67 321.38C120.796 321.65 119.904 321.857 119 322Z" fill="#263238"/>
<path d="M139.9 346.8C136.84 344.48 133.6 344.02 129.76 344.18C125.914 344.435 122.15 345.405 118.66 347.04C112.66 349.67 107.02 353.55 103.43 359.04C99.84 364.53 98.59 371.79 101.28 377.77C101.487 378.393 101.918 378.917 102.49 379.24C103.153 379.428 103.862 379.375 104.49 379.09C111.32 376.86 118.2 374.61 124.49 371.09C130.78 367.57 136.49 362.75 139.85 356.4C140.72 354.906 141.272 353.248 141.47 351.53C141.561 350.671 141.468 349.802 141.197 348.981C140.927 348.16 140.484 347.407 139.9 346.77" fill="#89BEB3"/>
<path d="M140 346.08C139.849 346.174 139.683 346.241 139.51 346.28L138.08 346.78L137.08 347.12L135.87 347.59C135.01 347.94 134.01 348.29 132.95 348.8L131.28 349.57C130.69 349.83 130.12 350.16 129.5 350.48C128.26 351.08 127.01 351.86 125.68 352.65C122.836 354.443 120.131 356.449 117.59 358.65C115.08 360.893 112.74 363.32 110.59 365.91C109.59 367.13 108.71 368.28 107.95 369.43C107.56 370 107.16 370.53 106.82 371.07L105.82 372.64C105.18 373.64 104.71 374.57 104.25 375.38C104.03 375.79 103.81 376.17 103.63 376.52C103.45 376.87 103.3 377.2 103.15 377.52C102.88 378.08 102.66 378.52 102.48 378.88C102.3 379.24 102.24 379.35 102.22 379.34C102.267 379.172 102.327 379.008 102.4 378.85C102.56 378.49 102.76 378.02 103 377.45C103.14 377.15 103.29 376.81 103.45 376.45C103.61 376.09 103.83 375.71 104.04 375.29C104.48 374.46 104.93 373.5 105.56 372.5L106.56 370.91C106.89 370.36 107.29 369.82 107.67 369.25C108.42 368.08 109.35 366.92 110.3 365.68C114.541 360.388 119.671 355.874 125.46 352.34C126.81 351.56 128.08 350.79 129.33 350.19C129.95 349.88 130.54 349.56 131.12 349.3L132.82 348.56C133.89 348.06 134.9 347.73 135.82 347.4C136.26 347.24 136.67 347.08 137.05 346.96L138.1 346.65L139.56 346.23C139.703 346.169 139.85 346.119 140 346.08Z" fill="#263238"/>
<path d="M116 359C113.562 359.934 111.075 360.735 108.55 361.4C106.064 362.2 103.537 362.868 100.98 363.4C103.418 362.466 105.905 361.665 108.43 361C110.914 360.193 113.441 359.525 116 359Z" fill="#263238"/>
<path d="M115.73 375.48C115.602 374.71 115.548 373.93 115.57 373.15C115.57 371.72 115.57 369.74 115.57 367.55C115.57 365.36 115.75 363.38 115.87 361.95C115.896 361.173 115.993 360.4 116.16 359.64C116.227 360.412 116.227 361.188 116.16 361.96C116.11 363.53 116.05 365.45 115.99 367.56C115.93 369.67 115.89 371.56 115.85 373.15C115.877 373.929 115.837 374.708 115.73 375.48Z" fill="#263238"/>
<path d="M129.81 368.3C129.69 368.3 129.32 364.3 128.98 359.3C128.64 354.3 128.45 350.3 128.57 350.3C128.69 350.3 129.06 354.3 129.4 359.3C129.74 364.3 129.93 368.29 129.81 368.3Z" fill="#263238"/>
<path d="M112.28 349.88C113.073 349.786 113.873 349.762 114.67 349.81C116.14 349.81 118.18 349.86 120.42 349.93C122.66 350 124.7 350.1 126.17 350.19C126.966 350.189 127.759 350.266 128.54 350.42C127.75 350.509 126.954 350.532 126.16 350.49C124.69 350.49 122.65 350.43 120.41 350.36C118.17 350.29 116.13 350.19 114.66 350.11C113.861 350.104 113.065 350.027 112.28 349.88Z" fill="#263238"/>
<path d="M146.08 398.92C146.048 398.762 146.031 398.601 146.03 398.44C146.03 398.09 146.03 397.63 145.97 397.07C145.92 395.89 145.9 394.16 145.97 392.07C146.04 389.98 146.15 387.41 146.41 384.6C146.67 381.79 147.09 378.73 147.66 375.52C148.23 372.31 148.96 369.3 149.66 366.58C150.36 363.86 151.17 361.43 151.88 359.42C152.59 357.41 153.21 355.79 153.68 354.69L154.22 353.43C154.35 353.14 154.42 352.99 154.44 353C154.406 353.157 154.36 353.311 154.3 353.46C154.18 353.8 154.02 354.23 153.83 354.75C153.41 355.87 152.83 357.49 152.17 359.51C151.51 361.53 150.77 363.96 150.04 366.67C149.31 369.38 148.64 372.41 148.04 375.6C147.44 378.79 147.04 381.85 146.76 384.6C146.48 387.35 146.31 389.92 146.23 392.04C146.15 394.16 146.11 395.88 146.12 397.04C146.12 397.6 146.12 398.04 146.12 398.41C146.134 398.581 146.12 398.753 146.08 398.92Z" fill="#263238"/>
<path d="M148 375.61C147.583 376.179 147.107 376.702 146.58 377.17C145.66 378.09 144.35 379.32 142.86 380.63C141.37 381.94 139.97 383.07 138.94 383.86C138.409 384.325 137.829 384.731 137.21 385.07C137.673 384.539 138.189 384.057 138.75 383.63L142.58 380.31L146.38 376.95C146.878 376.455 147.42 376.007 148 375.61Z" fill="#263238"/>
<path d="M159.23 384.69C158.677 384.027 158.172 383.325 157.72 382.59L154.2 377.46L150.61 372.37C150.08 371.692 149.599 370.976 149.17 370.23C149.791 370.843 150.354 371.512 150.85 372.23C151.85 373.49 153.16 375.23 154.55 377.23C155.94 379.23 157.14 381.09 157.97 382.45C158.46 383.155 158.882 383.905 159.23 384.69Z" fill="#263238"/>
<path d="M153.33 356.14C153.39 356.24 149.65 358.76 144.97 361.76C140.29 364.76 136.44 367.13 136.38 367.04C136.32 366.95 140.06 364.42 144.74 361.41C149.42 358.4 153.27 356 153.33 356.14Z" fill="#263238"/>
<path d="M163.89 367.53C161.905 365.892 160.013 364.146 158.22 362.3C156.337 360.549 154.547 358.7 152.86 356.76C154.84 358.4 156.729 360.146 158.52 361.99C160.408 363.739 162.201 365.588 163.89 367.53Z" fill="#263238"/>
<path d="M166.54 367.3L169.75 367.04C172.032 366.845 174.245 366.163 176.24 365.04C177.205 364.467 178.207 363.959 179.24 363.52C183.24 361.92 187.64 362.21 191.92 361.99C198.923 361.636 205.784 359.885 212.1 356.84C212.466 356.666 212.772 356.387 212.98 356.04C213.64 354.84 212.41 353.76 211.35 353.11C205.94 349.78 200.43 346.4 194.29 344.74C188.15 343.08 181.21 343.38 176 347C169.85 351.24 167.61 359.93 166.57 367.32" fill="#89BEB3"/>
<path d="M213.08 355.65C212.886 355.592 212.701 355.508 212.53 355.4L211.01 354.6C209.69 353.91 207.79 352.88 205.38 351.73C202.582 350.353 199.667 349.229 196.67 348.37C193.008 347.318 189.173 347.008 185.39 347.46C181.598 347.882 178.016 349.42 175.1 351.88C172.816 353.992 170.992 356.552 169.74 359.4C168.863 361.312 168.086 363.268 167.41 365.26C167.17 365.927 166.98 366.467 166.84 366.88C166.778 367.072 166.701 367.26 166.61 367.44C166.645 367.244 166.692 367.05 166.75 366.86C166.88 366.44 167.04 365.86 167.25 365.21C167.869 363.19 168.611 361.21 169.47 359.28C170.703 356.367 172.532 353.744 174.84 351.58C177.797 349.035 181.453 347.439 185.33 347C189.172 346.539 193.067 346.862 196.78 347.95C199.795 348.833 202.721 349.995 205.52 351.42C207.91 352.61 209.79 353.68 211.09 354.42L212.57 355.28C212.749 355.39 212.92 355.514 213.08 355.65Z" fill="#263238"/>
<path d="M205.36 359.8C205.29 359.9 201.09 357.18 195.97 353.73C190.85 350.28 186.76 347.4 186.82 347.3C186.88 347.2 191.09 349.92 196.21 353.37C201.33 356.82 205.43 359.7 205.36 359.8Z" fill="#263238"/>
<path d="M200.88 347.08C199.893 347.416 198.862 347.601 197.82 347.63C196.786 347.782 195.734 347.782 194.7 347.63C195.717 347.448 196.747 347.341 197.78 347.31C198.806 347.158 199.842 347.081 200.88 347.08Z" fill="#263238"/>
<path d="M182.48 344.68C182.134 345.467 181.668 346.195 181.1 346.84C180.615 347.587 180.026 348.26 179.35 348.84C179.695 348.056 180.161 347.33 180.73 346.69C181.21 345.937 181.8 345.259 182.48 344.68Z" fill="#263238"/>
<path d="M186.24 362.28C185.539 361.98 184.869 361.612 184.24 361.18C183.03 360.44 181.38 359.36 179.63 358.09C177.88 356.82 176.33 355.61 175.22 354.73C174.591 354.29 174.008 353.787 173.48 353.23C174.155 353.594 174.798 354.015 175.4 354.49L179.88 357.74C181.63 359.01 183.24 360.13 184.4 360.93C185.056 361.318 185.672 361.771 186.24 362.28Z" fill="#263238"/>
<path d="M171.27 381C168.21 380.2 164.55 383.18 163.92 386.28C163.29 389.38 164.45 392.57 165.82 395.43C168.742 401.836 173.073 407.501 178.49 412C183.962 416.498 190.797 419.012 197.88 419.13C196.58 413.13 198.22 406.82 197.5 400.71C196.854 395.326 194.404 390.319 190.549 386.506C186.694 382.693 181.661 380.297 176.27 379.71C174.27 379.5 172.05 379.19 171.27 380.99" fill="#89BEB3"/>
<path d="M197.88 419.1C197.727 419.048 197.58 418.981 197.44 418.9C197.035 418.677 196.651 418.419 196.29 418.13C195.015 417.008 193.992 415.627 193.29 414.08C192.8 413.13 192.29 412.08 191.72 410.96L190.07 407.32C189.484 405.98 188.816 404.678 188.07 403.42C187.242 402.085 186.31 400.817 185.28 399.63C183.19 397.16 180.93 395.03 178.98 392.99C177.216 391.213 175.61 389.285 174.18 387.23C173.217 385.834 172.428 384.327 171.83 382.74C171.671 382.311 171.534 381.874 171.42 381.43C171.37 381.274 171.336 381.113 171.32 380.95C171.32 380.95 171.54 381.58 171.98 382.68C172.634 384.22 173.452 385.685 174.42 387.05C175.88 389.066 177.498 390.962 179.26 392.72C181.26 394.72 183.49 396.86 185.61 399.35C186.652 400.555 187.595 401.843 188.43 403.2C189.179 404.474 189.847 405.793 190.43 407.15C190.99 408.44 191.53 409.66 192.04 410.81C192.55 411.96 193.04 412.99 193.56 413.94C194.222 415.472 195.188 416.853 196.4 418C197.3 418.77 197.9 419.06 197.88 419.1Z" fill="#263238"/>
<path d="M182 414.1C182.012 413.405 182.106 412.713 182.28 412.04C182.52 410.77 182.91 409.04 183.44 407.15C183.97 405.26 184.54 403.58 185 402.38C185.206 401.715 185.485 401.075 185.83 400.47C185.711 401.153 185.527 401.822 185.28 402.47C184.9 403.69 184.38 405.38 183.85 407.26C183.32 409.14 182.85 410.85 182.57 412.09C182.443 412.776 182.252 413.449 182 414.1Z" fill="#263238"/>
<path d="M197.3 399.32C196.567 399.22 195.844 399.056 195.14 398.83C193.82 398.48 191.99 398.01 189.96 397.55C187.93 397.09 186.08 396.74 184.74 396.49C184.008 396.391 183.285 396.23 182.58 396.01C183.321 395.988 184.062 396.048 184.79 396.19C186.15 396.37 188.02 396.68 190.06 397.14C192.1 397.6 193.92 398.14 195.22 398.54C195.937 398.732 196.633 398.993 197.3 399.32Z" fill="#263238"/>
<path d="M170.65 403.62C170.679 402.814 170.789 402.013 170.98 401.23C171.25 399.77 171.68 397.75 172.25 395.56C172.82 393.37 173.44 391.39 173.92 389.98C174.142 389.209 174.433 388.459 174.79 387.74C174.662 388.533 174.465 389.312 174.2 390.07C173.8 391.5 173.2 393.47 172.67 395.66C172.14 397.85 171.67 399.85 171.28 401.29C171.132 402.082 170.922 402.861 170.65 403.62Z" fill="#263238"/>
<path d="M190.26 386.45C187.403 386.365 184.553 386.134 181.72 385.76C178.869 385.531 176.032 385.158 173.22 384.64C176.076 384.726 178.927 384.956 181.76 385.33C184.61 385.559 187.447 385.933 190.26 386.45Z" fill="#263238"/>
<path d="M187.46 432.86C187.46 432.97 174.01 433.07 157.46 433.07C140.91 433.07 127.46 432.97 127.46 432.86C127.46 432.75 140.91 432.64 157.46 432.64C174.01 432.64 187.46 432.74 187.46 432.86Z" fill="#455A64"/>
<path d="M178.1 450.17C178.1 450.28 169.04 450.38 157.86 450.38C146.68 450.38 137.62 450.28 137.62 450.17C137.62 450.06 146.68 449.95 157.86 449.95C169.04 449.95 178.1 450.05 178.1 450.17Z" fill="#455A64"/>
<path d="M177.75 452.64C177.75 452.76 168.84 452.85 157.86 452.85C146.88 452.85 137.97 452.76 137.97 452.64C137.97 452.52 146.87 452.43 157.86 452.43C168.85 452.43 177.75 452.52 177.75 452.64Z" fill="#455A64"/>
<path d="M178.45 448.13C178.45 448.24 169.08 448.34 157.52 448.34C145.96 448.34 136.58 448.24 136.58 448.13C136.58 448.02 145.95 447.91 157.52 447.91C169.09 447.91 178.45 448 178.45 448.13Z" fill="#455A64"/>
<path d="M267.34 196.28C269.869 196.28 271.92 194.229 271.92 191.7C271.92 189.171 269.869 187.12 267.34 187.12C264.811 187.12 262.76 189.171 262.76 191.7C262.76 194.229 264.811 196.28 267.34 196.28Z" fill="#89BEB3"/>
<path d="M395 129.23C395.07 129.36 366.62 143.32 331.48 160.42C296.34 177.52 267.79 191.27 267.73 191.15C267.67 191.03 296.1 177.05 331.25 159.95C366.4 142.85 395 129.1 395 129.23Z" fill="#89BEB3"/>
<path d="M392.75 123.73C392.75 123.73 392.46 123.31 391.93 122.48C391.4 121.65 390.61 120.4 389.57 118.78C389.05 117.96 388.49 117.04 387.84 116.05L385.54 112.89L382.87 109.2C381.87 107.93 380.75 106.61 379.58 105.2C377.34 102.3 374.46 99.41 371.43 96.2C368.21 93.12 364.76 89.71 360.67 86.49C351.553 79.0037 341.515 72.7159 330.8 67.78C329.3 67.11 327.8 66.35 326.27 65.78L321.53 63.96C318.36 62.63 314.97 61.74 311.53 60.64C309.84 60.06 308.07 59.71 306.3 59.27L301 58L295.43 57C293.57 56.69 291.7 56.32 289.78 56.18L284 55.61L282.53 55.46L281.06 55.41L278.06 55.31C276.06 55.31 274.06 55.12 272.06 55.17L265.96 55.33C257.536 55.7867 249.169 56.9949 240.96 58.94C223.302 63.1528 206.649 70.8128 191.96 81.48C176.156 92.9034 162.967 107.562 153.27 124.48C143.509 141.362 137.464 160.134 135.54 179.54C132.026 214.243 141.783 248.99 162.85 276.79C167.323 282.72 172.28 288.269 177.67 293.38C180.21 295.89 182.9 298.13 185.5 300.38L189.5 303.52C190.8 304.57 192.19 305.47 193.5 306.44L195.5 307.86C196.16 308.31 196.85 308.73 197.5 309.17L201.5 311.72C204.22 313.24 206.79 314.86 209.44 316.15C210.76 316.82 212.04 317.5 213.33 318.15L217.18 319.89L219.06 320.75L220.95 321.5L224.64 322.96C232.962 326.119 241.583 328.428 250.37 329.85C252.17 330.22 253.9 330.37 255.5 330.6C257.1 330.83 258.61 331.05 260.02 331.12L263.91 331.43C265.1 331.53 266.17 331.62 267.14 331.63L271.52 331.76L273.02 331.83H271.52L267.13 331.74C266.13 331.74 265.13 331.66 263.9 331.57L260.01 331.29C258.6 331.22 257.1 330.96 255.48 330.78C253.86 330.6 252.14 330.42 250.34 330.06C241.532 328.669 232.887 326.388 224.54 323.25L220.84 321.79L219 321L217.11 320.15L213.25 318.41C211.96 317.78 210.67 317.1 209.35 316.41C206.69 315.13 204.1 313.51 201.35 311.99L197.35 309.44C196.68 309 195.99 308.59 195.35 308.13L193.35 306.71C192.03 305.71 190.63 304.84 189.35 303.79L185.35 300.64C182.74 298.42 180.03 296.18 177.48 293.64C172.052 288.515 167.059 282.949 162.55 277C141.386 249.124 131.57 214.264 135.08 179.44C137.006 159.96 143.071 141.116 152.87 124.17C157.808 115.577 163.644 107.532 170.28 100.17C189.078 79.4648 213.682 64.9081 240.88 58.4C249.13 56.4701 257.537 55.2886 266 54.87L272.12 54.72C274.12 54.72 276.12 54.83 278.12 54.87L281.12 54.97L282.6 55.02L284.07 55.17L289.88 55.76C291.8 55.91 293.68 56.27 295.55 56.59L301.11 57.54L306.49 58.83C308.26 59.28 310.04 59.63 311.73 60.22C315.14 61.32 318.54 62.22 321.73 63.56L326.48 65.39C328.05 66.01 329.48 66.77 331.02 67.39C341.75 72.3452 351.801 78.6531 360.93 86.16C365.02 89.4 368.46 92.83 371.68 95.92C374.68 99.2 377.57 102.11 379.81 105.02C380.97 106.44 382.08 107.77 383.09 109.02L385.74 112.72L388.01 115.9C388.66 116.9 389.22 117.82 389.73 118.64C390.73 120.27 391.52 121.52 392.04 122.37L392.75 123.73Z" fill="#89BEB3"/>
<path d="M187.78 350.61C187.78 350.61 187.78 350.31 187.71 349.71C187.64 349.11 187.62 348.22 187.55 347.07C187.55 346.49 187.48 345.85 187.44 345.13C187.4 344.41 187.21 343.65 187.09 342.81C186.97 341.97 186.82 341.07 186.66 340.11C186.599 339.609 186.495 339.114 186.35 338.63L185.94 337.08C184.657 331.879 182.586 326.905 179.8 322.33C176.164 316.235 171.386 310.897 165.73 306.61L163.34 304.83C162.5 304.28 161.61 303.77 160.74 303.23L159.41 302.43C158.971 302.146 158.514 301.892 158.04 301.67L155.17 300.29C154.68 300.06 154.17 299.82 153.71 299.6L152.17 299.04L149.06 297.91C148 297.56 146.89 297.33 145.8 297.03L144.14 296.61C143.86 296.54 143.59 296.46 143.31 296.4L142.45 296.27C140.137 295.846 137.799 295.575 135.45 295.46C134.26 295.46 133.05 295.3 131.84 295.32L128.18 295.51C127.57 295.51 126.95 295.51 126.34 295.63L124.49 295.91C123.26 296.12 122.01 296.26 120.77 296.52C118.267 297.073 115.805 297.794 113.4 298.68L111.56 299.35L110.64 299.69L109.76 300.12L106.19 301.85C105.02 302.48 103.9 303.22 102.74 303.85C102.18 304.21 101.57 304.52 101.03 304.93L99.41 306.15C97.2003 307.785 95.1022 309.565 93.13 311.48L90.32 314.57L89.62 315.35L88.98 316.19L87.72 317.89L86.44 319.59L85.33 321.4L84.22 323.24L83.66 324.15C83.49 324.47 83.35 324.8 83.19 325.15L81.31 329.05L79.81 333.14C76.0103 344.46 76.0103 356.71 79.81 368.03L81.31 372.12C81.94 373.43 82.56 374.73 83.19 376.02L83.66 377.02L84.22 377.94L85.33 379.77L86.44 381.59L87.71 383.29L89 385L89.63 385.84L90.34 386.61L93.15 389.71C95.119 391.608 97.2102 393.375 99.41 395L101.04 396.22C101.58 396.63 102.18 396.94 102.75 397.3C103.91 397.99 105.03 398.72 106.19 399.36L109.77 401.08L110.65 401.51L111.57 401.85L113.41 402.52C115.816 403.404 118.278 404.129 120.78 404.69C122.02 404.94 123.27 405.09 124.5 405.29L126.35 405.57C126.96 405.65 127.58 405.65 128.2 405.69L131.86 405.88C133.07 405.88 134.27 405.78 135.46 405.74C137.809 405.63 140.148 405.359 142.46 404.93L143.31 404.8L144.15 404.59L145.8 404.17C146.9 403.87 148.01 403.65 149.06 403.3L152.18 402.16L153.71 401.6L155.17 400.91L158.04 399.53C158.515 399.311 158.973 399.057 159.41 398.77L160.74 397.97C161.62 397.43 162.5 396.92 163.34 396.37L165.73 394.58C171.391 390.302 176.169 384.967 179.8 378.87C182.586 374.295 184.657 369.321 185.94 364.12L186.35 362.57C186.495 362.086 186.599 361.591 186.66 361.09C186.82 360.09 186.96 359.23 187.09 358.39C187.22 357.55 187.36 356.78 187.44 356.07C187.52 355.36 187.51 354.71 187.55 354.13C187.62 352.98 187.67 352.13 187.71 351.49C187.75 350.85 187.78 350.59 187.78 350.59C187.78 350.59 187.78 350.9 187.78 351.49C187.78 352.08 187.72 352.98 187.67 354.13C187.67 354.72 187.62 355.36 187.59 356.13C187.56 356.9 187.38 357.62 187.26 358.46C187.14 359.3 187 360.21 186.86 361.18C186.799 361.681 186.695 362.176 186.55 362.66C186.43 363.17 186.29 363.66 186.16 364.22C184.887 369.429 182.827 374.413 180.05 379C176.435 385.156 171.664 390.555 166 394.9L163.59 396.7C162.75 397.26 161.86 397.77 160.98 398.32L159.65 399.13C159.207 399.416 158.746 399.673 158.27 399.9L155.38 401.29L153.91 401.99L152.36 402.56L149.23 403.71C148.16 404.07 147.05 404.3 145.95 404.6L144.28 405.03L143.44 405.24L142.57 405.37C140.259 405.814 137.92 406.091 135.57 406.2C134.36 406.25 133.15 406.37 131.93 406.35L128.24 406.17C127.62 406.17 127 406.17 126.38 406.05L124.52 405.77C123.28 405.57 122.01 405.42 120.77 405.17C118.243 404.605 115.755 403.88 113.32 403L111.47 402.32C111.16 402.2 110.85 402.1 110.55 401.97L109.65 401.54L106 399.81C104.82 399.17 103.69 398.43 102.53 397.74C101.96 397.37 101.35 397.06 100.8 396.65L99.16 395.42C96.9327 393.769 94.815 391.975 92.82 390.05L89.98 386.92L89.27 386.14L88.63 385.29L87.35 383.58L86 381.87L84.9 380L83.78 378.15L83.22 377.23L82.74 376.23L80.84 372.29C80.34 370.92 79.84 369.54 79.33 368.16C75.4901 356.737 75.4901 344.373 79.33 332.95C79.84 331.57 80.33 330.19 80.85 328.82L82.74 324.88C82.9 324.56 83.05 324.23 83.22 323.88L83.78 322.95L84.91 321.1L86 319.35L87.28 317.63L88.56 315.92L89.21 315.08L89.92 314.29L92.76 311.17C94.7468 309.24 96.8616 307.446 99.09 305.8L100.73 304.57C101.28 304.16 101.89 303.85 102.46 303.48C103.63 302.79 104.76 302.05 105.93 301.41L109.54 299.68L110.44 299.25C110.74 299.12 111.05 299.02 111.36 298.9L113.21 298.23C115.639 297.342 118.125 296.617 120.65 296.06C121.9 295.8 123.17 295.66 124.41 295.45L126.27 295.17C126.89 295.09 127.51 295.09 128.13 295.05L131.82 294.87C133.04 294.87 134.25 294.97 135.45 295.02C137.816 295.132 140.172 295.409 142.5 295.85L143.36 295.98C143.65 296.04 143.92 296.12 144.2 296.19L145.87 296.62C146.98 296.92 148.09 297.15 149.16 297.51L152.29 298.66L153.83 299.23C154.33 299.45 154.83 299.7 155.3 299.93L158.19 301.32C158.668 301.543 159.129 301.8 159.57 302.09L160.91 302.9C161.79 303.45 162.68 303.96 163.52 304.52L165.92 306.32C171.6 310.647 176.388 316.032 180.02 322.18C182.804 326.779 184.868 331.777 186.14 337C186.27 337.53 186.41 338.05 186.53 338.56C186.675 339.044 186.779 339.539 186.84 340.04C186.98 341.04 187.12 341.92 187.24 342.76C187.36 343.6 187.5 344.38 187.57 345.09C187.64 345.8 187.63 346.46 187.65 347.04L187.76 349.68C187.78 350.31 187.78 350.61 187.78 350.61Z" fill="#89BEB3"/>
<path d="M118 239.3C118 239.3 118 239.07 117.94 238.63C117.88 238.19 117.87 237.52 117.82 236.63C117.82 236.203 117.79 235.723 117.73 235.19C117.73 234.66 117.56 234.09 117.47 233.46C117.38 232.83 117.27 232.17 117.15 231.46C117.013 230.7 116.833 229.949 116.61 229.21C115.657 225.332 114.116 221.622 112.04 218.21C109.337 213.692 105.789 209.736 101.59 206.56L99.81 205.23C99.19 204.82 98.53 204.45 97.88 204.05C97.23 203.65 96.59 203.21 95.88 202.89L93.74 201.89L92.66 201.37L91.5 201L89.19 200.16C88.4 199.9 87.58 199.73 86.77 199.51C85.9568 199.268 85.1283 199.081 84.29 198.95C82.5723 198.632 80.8349 198.432 79.09 198.35C78.21 198.35 77.32 198.23 76.42 198.24L73.7 198.38C73.25 198.38 72.79 198.38 72.33 198.47L71 198.7C70.09 198.85 69.16 198.96 68.24 199.15C66.3823 199.562 64.5548 200.1 62.77 200.76C60.9359 201.422 59.1486 202.208 57.42 203.11C56.55 203.58 55.72 204.11 54.86 204.64C54.4261 204.884 54.0055 205.151 53.6 205.44L52.39 206.34C50.751 207.57 49.1943 208.906 47.73 210.34L45.65 212.63L45.13 213.21L44.65 213.83L43.72 215.09L42.72 216.35L41.9 217.7L41.08 219L40.67 219.68L40.32 220.4C39.85 221.4 39.39 222.32 38.92 223.29L37.81 226.29C34.9832 234.689 34.9832 243.781 37.81 252.18C38.18 253.18 38.55 254.18 38.92 255.18C39.29 256.18 39.85 257.12 40.31 258.08L40.66 258.8L41.08 259.48L41.9 260.84L42.73 262.19L43.67 263.45L44.61 264.71L45.08 265.33L45.61 265.91L47.69 268.21C49.1557 269.627 50.7123 270.946 52.35 272.16L53.55 273.07C53.95 273.37 54.4 273.6 54.82 273.87C55.68 274.38 56.51 274.92 57.38 275.39C59.1064 276.3 60.8941 277.088 62.73 277.75C64.5165 278.402 66.3437 278.936 68.2 279.35C69.12 279.54 70.05 279.65 70.96 279.8L72.33 280.01C72.79 280.07 73.25 280.07 73.7 280.1L76.42 280.24C77.32 280.24 78.21 280.17 79.1 280.14C80.8416 280.058 82.5756 279.857 84.29 279.54C85.1275 279.401 85.9558 279.211 86.77 278.97C87.59 278.75 88.41 278.59 89.19 278.33L91.5 277.48L92.64 277.07L93.73 276.56L95.86 275.56C96.57 275.24 97.2 274.78 97.86 274.4C98.52 274.02 99.17 273.63 99.79 273.22L101.57 271.9C105.755 268.734 109.295 264.797 112 260.3C114.078 256.889 115.619 253.179 116.57 249.3C116.793 248.561 116.973 247.81 117.11 247.05C117.23 246.33 117.33 245.66 117.43 245.05C117.53 244.44 117.64 243.85 117.69 243.33C117.74 242.81 117.75 242.33 117.78 241.88C117.78 241.04 117.87 240.38 117.9 239.93C117.93 239.48 117.96 239.26 117.96 239.26C117.96 239.26 117.96 239.48 117.96 239.93C117.96 240.38 117.96 241.04 117.89 241.93C117.89 242.36 117.89 242.85 117.83 243.38C117.77 243.91 117.68 244.49 117.59 245.11C117.5 245.73 117.4 246.41 117.3 247.11C117.167 247.875 116.993 248.633 116.78 249.38C115.843 253.256 114.319 256.965 112.26 260.38C109.563 264.954 106.003 268.961 101.78 272.18L100 273.59C99.37 274.01 98.71 274.39 98 274.79C97.29 275.19 96.7 275.64 96 275.97L93.85 276.97L92.76 277.49L91.61 277.92L89.28 278.77C88.49 279.04 87.66 279.21 86.84 279.44C86.0156 279.681 85.1774 279.871 84.33 280.01C82.5967 280.339 80.8423 280.547 79.08 280.63C78.19 280.63 77.29 280.75 76.38 280.74L73.63 280.61C73.17 280.61 72.7 280.61 72.24 280.52L70.86 280.31C69.93 280.16 69 280.05 68.07 279.86C66.189 279.449 64.3381 278.911 62.53 278.25C60.672 277.583 58.8613 276.791 57.11 275.88C56.23 275.4 55.39 274.88 54.52 274.33C54.09 274.06 53.64 273.83 53.23 273.53L52.01 272.61C50.3511 271.385 48.7775 270.049 47.3 268.61L45.18 266.29L44.65 265.7L44.17 265.07L43.17 263.8L42.22 262.52L41.38 261.16L40.54 259.78L40.12 259.09L39.77 258.37L38.36 255.44C37.98 254.44 37.6 253.44 37.23 252.36C34.3622 243.859 34.3622 234.651 37.23 226.15C37.61 225.15 37.98 224.09 38.36 223.07L39.77 220.14L40.13 219.42L40.54 218.73L41.38 217.35L42.22 215.99L43.17 214.71L44.17 213.44L44.64 212.81L45.17 212.22L47.29 209.9C48.7675 208.461 50.3412 207.125 52 205.9L53.23 204.99C53.63 204.68 54.08 204.45 54.51 204.18C55.38 203.66 56.22 203.11 57.1 202.64C58.8493 201.725 60.6603 200.933 62.52 200.27C64.3265 199.611 66.1737 199.07 68.05 198.65C68.98 198.46 69.92 198.35 70.85 198.2L72.23 197.99C72.69 197.93 73.16 197.94 73.62 197.91L76.37 197.77C77.27 197.77 78.18 197.85 79.07 197.88C80.8287 197.968 82.5794 198.175 84.31 198.5C85.158 198.64 85.9964 198.834 86.82 199.08C87.64 199.3 88.47 199.47 89.27 199.74L91.6 200.6L92.75 201.02L93.84 201.54L95.99 202.54C96.71 202.87 97.34 203.33 97.99 203.72C98.64 204.11 99.31 204.51 99.93 204.92L101.72 206.26C105.944 209.482 109.503 213.493 112.2 218.07C114.261 221.484 115.785 225.194 116.72 229.07C116.932 229.817 117.106 230.575 117.24 231.34C117.34 232.06 117.44 232.73 117.53 233.34C117.62 233.95 117.72 234.54 117.77 235.07C117.82 235.6 117.77 236.07 117.83 236.52C117.83 237.37 117.89 238.03 117.9 238.52C117.91 239.01 118 239.3 118 239.3Z" fill="#89BEB3"/>
<path d="M436.08 65.17C436.055 65.0244 436.038 64.8775 436.03 64.73C436.03 64.4167 436 63.9867 435.94 63.44C435.94 63.16 435.94 62.84 435.88 62.5C435.82 62.16 435.77 61.78 435.71 61.37C435.582 60.4252 435.391 59.4898 435.14 58.57C434.505 56.0432 433.494 53.6262 432.14 51.4C430.175 48.1249 427.538 45.3038 424.402 43.1232C421.267 40.9426 417.704 39.4521 413.95 38.75C409.222 37.8793 404.348 38.2867 399.83 39.93C398.631 40.3661 397.462 40.8805 396.33 41.47C395.76 41.78 395.22 42.14 394.66 42.47C394.08 42.8025 393.525 43.1768 393 43.59C391.946 44.3885 390.944 45.2536 390 46.18C389.057 47.1589 388.179 48.1977 387.37 49.29C385.703 51.5355 384.406 54.0339 383.53 56.69C382.646 59.4311 382.181 62.29 382.15 65.17C382.177 68.0471 382.642 70.9033 383.53 73.64C384.402 76.2979 385.699 78.7969 387.37 81.04C388.176 82.1375 389.055 83.1798 390 84.16C390.941 85.0889 391.944 85.9541 393 86.75C393.512 87.1616 394.054 87.5359 394.62 87.87C395.18 88.2 395.72 88.56 396.29 88.87C397.422 89.4595 398.591 89.974 399.79 90.41C405.672 92.5378 412.11 92.5574 418.005 90.4654C423.9 88.3734 428.885 84.2997 432.11 78.94C433.459 76.7079 434.47 74.2883 435.11 71.76C435.361 70.8435 435.551 69.9115 435.68 68.97C435.74 68.56 435.81 68.19 435.85 67.84C435.89 67.49 435.85 67.18 435.91 66.84C435.91 66.3 435.98 65.84 436 65.56C436.008 65.4125 436.025 65.2656 436.05 65.12C436.061 65.2665 436.061 65.4135 436.05 65.56C436.05 65.87 436.05 66.3 436.05 66.85V67.8C436.05 68.15 435.95 68.53 435.9 68.94C435.792 69.8916 435.615 70.834 435.37 71.76C434.765 74.3234 433.77 76.7786 432.42 79.04C429.194 84.5112 424.156 88.6824 418.179 90.8317C412.202 92.9811 405.662 92.9734 399.69 90.81C398.465 90.3735 397.272 89.8523 396.12 89.25C395.54 88.94 394.99 88.57 394.41 88.25C393.833 87.9138 393.282 87.5361 392.76 87.12C391.666 86.3097 390.627 85.4277 389.65 84.48C388.683 83.488 387.787 82.4287 386.97 81.31C385.25 79.0376 383.909 76.5014 383 73.8C382.091 71.0126 381.615 68.1019 381.59 65.17C381.621 62.2353 382.096 59.3223 383 56.53C383.897 53.8251 385.224 51.2825 386.93 49C387.752 47.8854 388.648 46.8264 389.61 45.83C390.587 44.8855 391.626 44.0069 392.72 43.2C393.244 42.784 393.795 42.4032 394.37 42.06C394.95 41.73 395.5 41.36 396.08 41.06C397.232 40.4578 398.425 39.9365 399.65 39.5C404.243 37.8373 409.197 37.43 414 38.32C417.802 39.0495 421.406 40.5797 424.572 42.809C427.737 45.0383 430.392 47.9157 432.36 51.25C433.729 53.5041 434.741 55.9564 435.36 58.52C435.604 59.4495 435.781 60.3953 435.89 61.35C435.94 61.76 436.01 62.14 436.04 62.49C436.07 62.84 436.04 63.15 436.04 63.44C436.04 63.99 436.04 64.44 436.04 64.73C436.064 64.8755 436.077 65.0226 436.08 65.17Z" fill="#89BEB3"/>
<path d="M270 202.58C270 202.58 270.15 208 272.57 207.21C274.71 206.51 274.01 203.66 274.01 203.66C274.01 203.66 271.1 198.33 274.01 197.74C274.41 197.65 276.7 201.24 277.85 203.07C278.267 203.741 278.41 204.546 278.25 205.32L276.54 213.76C276.225 215.323 275.493 216.771 274.42 217.95L272.77 219.76L273.89 224.08L262.61 227.94L261.77 213.6L260.59 205.07C260.65 204.61 260.822 204.172 261.09 203.793C261.359 203.415 261.716 203.108 262.13 202.9L263.13 202.4L263.2 201.25C263.222 200.914 263.334 200.59 263.524 200.312C263.714 200.034 263.975 199.812 264.28 199.67L264.91 199.37L266.48 198.53C267.09 198.2 266.56 190.69 267.22 190.88C267.22 190.88 268.5 190.22 268.83 191.26" fill="#FFBE9D"/>
<path d="M262.32 206C262.279 205.812 262.279 205.618 262.32 205.43C262.372 205.209 262.475 205.004 262.621 204.83C262.767 204.656 262.952 204.519 263.16 204.43H263.21V204.17C263.277 203.418 263.277 202.662 263.21 201.91C263.09 202.654 263.029 203.406 263.03 204.16C263.035 204.226 263.035 204.293 263.03 204.36L263.09 204.27C262.852 204.374 262.646 204.539 262.492 204.748C262.337 204.957 262.24 205.202 262.21 205.46C262.14 205.75 262.29 206 262.32 206Z" fill="#EB996E"/>
<path d="M267.15 198.23C266.772 198.53 266.493 198.938 266.35 199.4C266.054 200.538 265.946 201.717 266.03 202.89C266.075 203.238 266.075 203.591 266.03 203.94C265.947 204.267 265.805 204.575 265.61 204.85C265.283 205.246 265.09 205.737 265.06 206.25C265.075 206.73 265.205 207.2 265.44 207.62C265.244 207.453 265.088 207.244 264.984 207.009C264.881 206.773 264.831 206.517 264.84 206.26C264.836 205.692 265.023 205.139 265.37 204.69C265.536 204.443 265.658 204.169 265.73 203.88C265.767 203.548 265.767 203.212 265.73 202.88C265.639 201.671 265.782 200.455 266.15 199.3C266.48 198.4 267.16 198.18 267.15 198.23Z" fill="#EB996E"/>
<path d="M323.7 443.63L325.03 474.98L341.96 474.6L340.69 443.19L323.7 443.63Z" fill="#89BEB3"/>
<path d="M333.34 473.61C333.48 473.61 333.22 466.74 332.76 458.28C332.3 449.82 331.76 442.97 331.66 442.98C331.56 442.99 331.78 449.85 332.25 458.31C332.72 466.77 333.2 473.62 333.34 473.61Z" fill="#263238"/>
<path d="M324.94 472.82L341.87 472.38L341.96 474.6L325.03 474.98L324.94 472.82Z" fill="#263238"/>
<path d="M341.55 464.56C341.55 464.56 341.42 464.3 341.09 463.9C340.608 463.339 340.08 462.821 339.51 462.35C338.655 461.652 337.706 461.08 336.69 460.65C334.918 459.883 332.947 459.706 331.067 460.146C329.187 460.585 327.498 461.617 326.25 463.09C325.775 463.665 325.385 464.305 325.09 464.99C324.966 465.234 324.888 465.498 324.86 465.77C325.345 464.912 325.9 464.096 326.52 463.33C328.129 461.58 330.365 460.537 332.74 460.43C335.108 460.398 337.416 461.178 339.28 462.64C340.75 463.73 341.48 464.62 341.55 464.56Z" fill="#263238"/>
<g opacity="0.3">
<path opacity="0.3" d="M341.05 452.13L341.19 455.58L324.22 455.89L324.11 453.29L341.05 452.13Z" fill="black"/>
</g>
<path d="M283.86 445.51L284.69 464.59C284.69 464.59 265.57 471.83 265.38 475.38L302.43 475.1L302.36 445.32L283.86 445.51Z" fill="#89BEB3"/>
<path d="M295.89 463C296.253 463.095 296.568 463.321 296.773 463.636C296.979 463.95 297.059 464.329 297 464.7C296.907 465.062 296.68 465.375 296.363 465.574C296.047 465.773 295.666 465.843 295.3 465.77C294.918 465.658 294.591 465.407 294.384 465.067C294.177 464.726 294.104 464.321 294.18 463.93C294.312 463.575 294.572 463.282 294.909 463.11C295.246 462.938 295.635 462.899 296 463" fill="#E0E0E0"/>
<path d="M302.43 475.1V472.1L266.58 473.45C266.58 473.45 264.92 474.19 265.12 475.36L302.43 475.1Z" fill="#263238"/>
<path d="M284.35 464.71C284.35 464.89 285.27 464.97 286.17 465.55C287.07 466.13 287.56 466.89 287.72 466.82C287.88 466.75 287.61 465.69 286.51 465.01C285.41 464.33 284.31 464.54 284.35 464.71Z" fill="#263238"/>
<path d="M280.45 466.36C280.45 466.54 281.2 466.84 281.83 467.61C282.46 468.38 282.64 469.19 282.83 469.18C283.02 469.17 283.12 468.18 282.32 467.18C281.52 466.18 280.45 466.18 280.45 466.36Z" fill="#263238"/>
<path d="M278.26 471.06C278.43 471.06 278.68 470.18 278.2 469.19C277.72 468.2 276.87 467.8 276.79 467.96C276.71 468.12 277.25 468.64 277.63 469.46C278.01 470.28 278.08 471 278.26 471.06Z" fill="#263238"/>
<path d="M284.65 460.31C284.73 460.48 285.56 460.22 286.59 460.31C287.62 460.4 288.43 460.69 288.52 460.54C288.61 460.39 287.84 459.73 286.62 459.68C285.4 459.63 284.56 460.17 284.65 460.31Z" fill="#263238"/>
<path d="M284 456.2C284.611 456.376 285.259 456.376 285.87 456.2C286.543 456.081 287.199 455.876 287.82 455.59C288.192 455.426 288.55 455.232 288.89 455.01C289.098 454.893 289.287 454.744 289.45 454.57C289.577 454.438 289.655 454.267 289.669 454.084C289.684 453.902 289.635 453.72 289.53 453.57C289.438 453.444 289.318 453.341 289.179 453.27C289.04 453.199 288.886 453.161 288.73 453.16C288.493 453.158 288.257 453.192 288.03 453.26C287.632 453.357 287.243 453.491 286.87 453.66C286.242 453.949 285.665 454.337 285.16 454.81C284.3 455.62 284 456.3 284.07 456.33C284.14 456.36 284.57 455.82 285.44 455.15C285.948 454.747 286.506 454.411 287.1 454.15C287.447 454.008 287.805 453.894 288.17 453.81C288.57 453.7 288.9 453.7 289.01 453.87C289.12 454.04 289.01 453.97 289.01 454.08C288.886 454.209 288.745 454.32 288.59 454.41C288.272 454.625 287.937 454.816 287.59 454.98C287.012 455.27 286.41 455.507 285.79 455.69C285.183 455.822 284.585 455.993 284 456.2Z" fill="#263238"/>
<path d="M284.19 456.46C284.26 456.46 284.62 455.84 284.67 454.66C284.699 453.966 284.608 453.273 284.4 452.61C284.281 452.217 284.12 451.838 283.92 451.48C283.819 451.233 283.655 451.018 283.444 450.855C283.234 450.691 282.984 450.586 282.72 450.55C282.554 450.556 282.394 450.607 282.256 450.699C282.118 450.791 282.009 450.919 281.94 451.07C281.848 451.29 281.787 451.523 281.76 451.76C281.695 452.178 281.695 452.603 281.76 453.02C281.873 453.717 282.155 454.376 282.58 454.94C283.31 455.94 284.08 456.12 284.09 456.05C284.1 455.98 283.51 455.62 282.95 454.69C282.624 454.157 282.416 453.56 282.34 452.94C282.29 452.582 282.29 452.218 282.34 451.86C282.4 451.46 282.54 451.14 282.69 451.18C282.84 451.22 283.19 451.47 283.35 451.79C283.536 452.109 283.694 452.443 283.82 452.79C284.032 453.389 284.157 454.015 284.19 454.65C284.28 455.75 284.09 456.44 284.19 456.46Z" fill="#263238"/>
<g opacity="0.3">
<path opacity="0.3" d="M302.44 456.76L302.4 461H284.53V457.16L302.44 456.76Z" fill="black"/>
</g>
<path d="M300 200.4L322.51 200.11L320 181C320 181 321.54 180.67 321.64 172.33C321.74 163.99 322.13 149.83 322.13 149.83C317.392 147.786 312.195 147.043 307.075 147.677C301.954 148.312 297.095 150.301 293 153.44L291.76 154.39L300 200.4Z" fill="#FFBE9D"/>
<path d="M294.41 164.64C294.26 164.58 288.68 162.95 288.86 168.64C289.04 174.33 294.73 172.98 294.73 172.82C294.73 172.66 294.41 164.64 294.41 164.64Z" fill="#FFBE9D"/>
<path d="M321.18 163.45C321.32 163.39 326.4 162.02 326.18 167.72C325.96 173.42 320.31 172.06 320.31 171.9C320.31 171.74 321.18 163.45 321.18 163.45Z" fill="#FFBE9D"/>
<path d="M292.56 164C293.41 168.77 293.24 171.28 294.03 174.47C295.28 179.52 297.78 183.39 302.33 185.91C306.88 188.43 313.03 188.39 316.94 184.96C319.65 182.57 321.57 179.88 321.94 176.3C322.31 172.72 322.75 166.36 322.77 162.75C322.82 156.24 323.26 150.02 323.26 150.02L304.66 146.66L294.11 153L292.56 164Z" fill="#263238"/>
<path d="M311.74 188.8C310.683 189.112 309.575 189.21 308.48 189.09C307.385 188.97 306.324 188.633 305.36 188.1C305.42 187.95 306.79 188.39 308.54 188.57C310.29 188.75 311.72 188.65 311.74 188.8Z" fill="#263238"/>
<path d="M293.46 172.13C292.91 167.23 292.56 161.63 291.79 156.47C291.51 154.54 290.79 151.74 290.99 149.79C291.045 147.822 291.458 145.88 292.21 144.06C292.754 142.948 293.547 141.976 294.527 141.22C295.508 140.465 296.649 139.945 297.863 139.701C299.076 139.457 300.33 139.496 301.526 139.815C302.722 140.134 303.829 140.724 304.76 141.54C305.43 140.502 306.403 139.696 307.548 139.232C308.693 138.769 309.953 138.669 311.156 138.948C312.36 139.227 313.447 139.871 314.271 140.791C315.095 141.711 315.615 142.863 315.76 144.09C316.426 143.452 317.285 143.052 318.202 142.951C319.119 142.851 320.043 143.056 320.832 143.535C321.62 144.013 322.229 144.739 322.563 145.598C322.897 146.458 322.938 147.404 322.68 148.29C323.352 148.398 323.987 148.673 324.526 149.09C325.065 149.506 325.491 150.051 325.765 150.674C326.04 151.298 326.154 151.98 326.097 152.658C326.04 153.337 325.814 153.991 325.44 154.56C324.58 155.88 323.03 156.61 322.08 157.88C321.545 158.619 321.233 159.496 321.182 160.407C321.131 161.319 321.342 162.225 321.79 163.02" fill="#263238"/>
<path d="M319.28 154.44C319.246 154.629 319.175 154.809 319.07 154.97C318.803 155.451 318.435 155.867 317.99 156.19C317.293 156.711 316.44 156.982 315.57 156.96C315.001 156.945 314.44 156.813 313.924 156.572C313.408 156.331 312.947 155.987 312.57 155.56L312.96 155.45C312.825 156.098 312.527 156.7 312.092 157.199C311.658 157.698 311.103 158.077 310.48 158.3C309.791 158.566 309.047 158.658 308.315 158.567C307.582 158.476 306.883 158.206 306.28 157.78C305.191 157.018 304.369 155.934 303.93 154.68L304.38 154.74C303.914 155.433 303.288 156.003 302.555 156.403C301.823 156.804 301.005 157.022 300.17 157.04C299.511 157.055 298.857 156.935 298.246 156.687C297.636 156.439 297.082 156.069 296.62 155.6C296.017 154.992 295.577 154.242 295.34 153.42C295.239 153.128 295.202 152.818 295.23 152.51C295.23 152.51 295.31 152.83 295.51 153.36C295.791 154.124 296.25 154.81 296.85 155.36C297.289 155.778 297.807 156.104 298.374 156.319C298.94 156.533 299.544 156.632 300.15 156.61C300.908 156.577 301.648 156.365 302.308 155.991C302.968 155.617 303.531 155.093 303.95 154.46L304.23 154.04L304.4 154.51C304.813 155.658 305.575 156.648 306.58 157.34C307.108 157.725 307.724 157.973 308.372 158.06C309.019 158.147 309.679 158.072 310.29 157.84C310.839 157.649 311.332 157.322 311.721 156.891C312.111 156.459 312.386 155.936 312.52 155.37L312.6 154.9L312.91 155.27C313.242 155.657 313.649 155.973 314.106 156.2C314.563 156.427 315.061 156.559 315.57 156.59C316.367 156.631 317.157 156.414 317.82 155.97C318.403 155.561 318.899 155.041 319.28 154.44Z" fill="#455A64"/>
<path d="M319.24 152.18C319.131 151.437 318.862 150.727 318.45 150.1C317.965 149.434 317.254 148.968 316.45 148.79C315.967 148.676 315.465 148.665 314.977 148.758C314.49 148.851 314.027 149.046 313.62 149.33L313.17 149.66V149.1C313.215 148.546 313.151 147.989 312.98 147.46C312.8 146.885 312.505 146.353 312.113 145.896C311.721 145.439 311.24 145.066 310.7 144.8C309.791 144.386 308.768 144.294 307.8 144.54C306.898 144.803 306.069 145.272 305.38 145.91C305.38 145.91 305.49 145.64 305.84 145.27C306.504 144.643 307.336 144.223 308.235 144.062C309.133 143.9 310.059 144.004 310.9 144.36C311.51 144.645 312.055 145.053 312.499 145.559C312.943 146.065 313.277 146.658 313.48 147.3C313.669 147.897 313.737 148.526 313.68 149.15L313.28 148.91C313.748 148.588 314.279 148.371 314.839 148.275C315.398 148.178 315.972 148.204 316.52 148.35C317.396 148.589 318.151 149.145 318.64 149.91C318.962 150.401 319.158 150.965 319.21 151.55C319.32 152 319.27 152.18 319.24 152.18Z" fill="#455A64"/>
<path d="M307.39 152.35C307.31 152.35 307.39 152.02 307.39 151.56C307.339 150.961 307.14 150.383 306.81 149.88C306.44 149.29 305.99 148.69 305.74 148.37C305.49 148.05 305.18 148.28 305.14 148.25C305.1 148.22 305.14 148.12 305.26 148.02C305.37 147.962 305.495 147.937 305.619 147.947C305.743 147.958 305.861 148.004 305.96 148.08C306.199 148.273 306.416 148.491 306.61 148.73C306.848 149.007 307.065 149.301 307.26 149.61C307.65 150.2 307.826 150.906 307.76 151.61C307.67 152.11 307.44 152.38 307.39 152.35Z" fill="#455A64"/>
<path d="M296.36 145.18C296.3 145.18 296.36 144.74 296.7 144.18C296.917 143.827 297.207 143.523 297.55 143.29C297.997 143.001 298.533 142.884 299.06 142.96C299.964 143.128 300.772 143.631 301.32 144.37C301.74 144.9 301.93 145.26 301.87 145.3C301.81 145.34 301.52 145.06 301.05 144.62C300.5 144.036 299.785 143.635 299 143.47C298.615 143.432 298.227 143.497 297.875 143.659C297.524 143.821 297.222 144.073 297 144.39C296.61 144.84 296.43 145.21 296.36 145.18Z" fill="#455A64"/>
<path d="M299.25 169.35C298.315 168.309 297.631 167.067 297.25 165.72C296.717 164.429 296.481 163.035 296.56 161.64C296.71 161.64 297 163.43 297.74 165.55C298.48 167.67 299.38 169.27 299.25 169.35Z" fill="#455A64"/>
<path d="M301.75 170.72C300.607 169.11 299.897 167.233 299.69 165.27C300.198 166.102 300.588 167.001 300.85 167.94C301.277 168.821 301.58 169.756 301.75 170.72Z" fill="#455A64"/>
<path d="M317.41 171.11C317.592 172.807 317.373 174.522 316.77 176.118C316.167 177.715 315.198 179.147 313.94 180.3C314.829 178.904 315.611 177.444 316.28 175.93C316.785 174.356 317.163 172.744 317.41 171.11Z" fill="#455A64"/>
<path d="M319.91 167C320.421 168.448 320.545 170.004 320.27 171.514C319.994 173.024 319.329 174.436 318.34 175.61C318.934 174.257 319.409 172.855 319.76 171.42C319.935 169.954 319.985 168.475 319.91 167Z" fill="#455A64"/>
<path d="M312.71 324.07L318.18 376.84L322.11 456.3H343.08L343.65 287.18L283.61 291.46L271.17 380.19L281.95 457.85H304.95L299.57 384.01L312.71 324.07Z" fill="#263238"/>
<path d="M312.71 324.07C311.472 325.522 310.106 326.861 308.63 328.07C307.268 329.413 305.785 330.628 304.2 331.7C306.8 328.896 309.649 326.332 312.71 324.04V324.07Z" fill="#455A64"/>
<path d="M312.65 323C312.548 320.74 312.585 318.476 312.76 316.22C312.761 313.961 312.891 311.704 313.15 309.46C313.49 313.978 313.323 318.52 312.65 323Z" fill="#455A64"/>
<path d="M319.58 303.32C319.693 303.312 319.807 303.312 319.92 303.32L320.92 303.26L324.92 303.06L339.14 302.47H339.38V302.71C339.38 307.15 339.38 312.17 339.38 317.47V317.93L339.21 318L329.96 321.7H329.88H329.79L321.61 318.86L321.49 318.81V318.68C320.89 314.08 320.39 310.24 320.04 307.49C319.88 306.2 319.75 305.17 319.66 304.41C319.605 304.059 319.571 303.705 319.56 303.35C319.591 303.451 319.614 303.555 319.63 303.66C319.63 303.88 319.71 304.16 319.77 304.49C319.89 305.26 320.05 306.3 320.26 307.6C320.67 310.31 321.26 314.09 321.92 318.6L321.78 318.42L330 321.2H329.83L339.07 317.47L338.9 317.72V317.43C338.9 312.13 338.9 307.11 338.9 302.67L339.14 302.91L325.08 303.26L321.08 303.33H320C319.86 303.343 319.719 303.34 319.58 303.32Z" fill="#455A64"/>
<path d="M289.31 303.58C289.41 303.566 289.51 303.566 289.61 303.58H290.55L294.14 303.47L307.14 303.17H307.38V303.41C307.24 307.79 307.08 312.84 306.91 318.22V318.35L306.8 318.43L305.3 319.43L297.7 324.38L297.56 324.47L297.43 324.39L288.87 319.17L288.76 319.11V318.98C288.92 314.38 289.06 310.55 289.15 307.8C289.21 306.52 289.25 305.49 289.29 304.73C289.295 304.379 289.318 304.028 289.36 303.68C289.367 303.78 289.367 303.88 289.36 303.98V304.82C289.36 305.59 289.36 306.64 289.36 307.94C289.36 310.66 289.26 314.45 289.19 318.99L289.09 318.8L297.69 323.96H297.42L305.01 318.96L306.51 317.96L306.4 318.17C306.59 312.79 306.78 307.75 306.94 303.37L307.17 303.6L294.34 303.67H290.69H289.69C289.56 303.657 289.432 303.626 289.31 303.58Z" fill="#455A64"/>
<path d="M337.17 327.48C336.223 327.542 335.272 327.512 334.33 327.39C332.58 327.26 330.16 327.03 327.51 326.68C324.86 326.33 322.46 325.95 320.74 325.63C319.809 325.509 318.891 325.298 318 325C318.95 325.011 319.897 325.105 320.83 325.28L327.62 326.18L334.4 327.04C335.334 327.108 336.261 327.255 337.17 327.48Z" fill="#455A64"/>
<path d="M336.68 386.3C336.68 386.3 336.6 386.6 336.19 386.96C335.583 387.451 334.821 387.709 334.04 387.69C332.89 387.662 331.784 387.238 330.91 386.49C329.866 385.621 328.908 384.653 328.05 383.6C326.451 381.737 325.032 379.729 323.81 377.6C323.26 376.746 322.814 375.829 322.48 374.87C323.075 375.684 323.623 376.532 324.12 377.41C325.429 379.446 326.875 381.391 328.45 383.23C329.285 384.255 330.205 385.209 331.2 386.08C331.991 386.785 332.993 387.21 334.05 387.29C334.755 387.336 335.456 387.154 336.05 386.77C336.48 386.52 336.64 386.27 336.68 386.3Z" fill="#455A64"/>
<path d="M295.27 388.15C295.237 388.394 295.141 388.625 294.99 388.82C294.622 389.388 294.125 389.86 293.54 390.2C292.667 390.711 291.671 390.974 290.66 390.96C289.425 390.915 288.225 390.535 287.19 389.86C285.377 388.599 283.94 386.871 283.03 384.86C282.598 384.08 282.263 383.251 282.03 382.39C282.542 383.117 282.997 383.882 283.39 384.68C284.363 386.559 285.777 388.175 287.51 389.39C288.469 390.01 289.57 390.375 290.71 390.45C291.644 390.487 292.571 390.28 293.4 389.85C294.14 389.426 294.778 388.846 295.27 388.15Z" fill="#455A64"/>
<path d="M296.61 380.19C296.104 380.633 295.516 380.972 294.88 381.19C293.39 381.822 291.797 382.178 290.18 382.24C288.563 382.304 286.948 382.08 285.41 381.58C284.761 381.414 284.15 381.125 283.61 380.73C287.85 382.237 292.509 382.043 296.61 380.19Z" fill="#455A64"/>
<path d="M396.41 129.91L399.41 130.69L398.41 134.97C398.41 134.97 396.33 140.08 394.18 138.73C392.28 137.54 393.64 134.96 393.64 134.96C393.64 134.96 397.74 130.5 395.08 129.23C394.72 129.05 391.63 131.96 390.08 133.46C389.515 134.009 389.183 134.753 389.15 135.54L388.77 144.11C388.688 145.695 389.033 147.274 389.77 148.68L390.93 150.82L388.8 154.73L398.8 161.19L403 147.52L406.2 139.52C406.249 139.059 406.183 138.594 406.009 138.164C405.834 137.735 405.557 137.356 405.2 137.06L404.34 136.33L404.55 135.2C404.611 134.87 404.582 134.529 404.465 134.215C404.349 133.9 404.151 133.622 403.89 133.41L403.35 132.96L403.81 131.15C403.95 130.31 404.87 127.29 399.05 127.46C399.05 127.46 396.05 127.36 395.7 128.35C395.56 129.08 395.7 129.74 396.41 129.91Z" fill="#FFBE9D"/>
<path d="M402.27 139.88C402.425 139.557 402.556 139.223 402.66 138.88C402.851 138.006 402.753 137.093 402.38 136.28C402.481 135.373 402.686 134.481 402.99 133.62C403.096 133.264 403.258 132.926 403.47 132.62C403.47 132.62 403.32 133.02 403.12 133.68C402.867 134.527 402.687 135.393 402.58 136.27C402.64 136.49 402.74 136.73 402.81 136.98C402.877 137.215 402.918 137.456 402.93 137.7C402.955 138.115 402.908 138.531 402.79 138.93C402.712 139.196 402.601 139.451 402.46 139.69C402.407 139.763 402.343 139.827 402.27 139.88Z" fill="#EB996E"/>
<path d="M404.34 140C404.412 139.824 404.459 139.639 404.48 139.45C404.49 139.22 404.445 138.99 404.347 138.781C404.25 138.572 404.103 138.39 403.92 138.25V138.18V137.99C404.046 137.249 404.234 136.52 404.48 135.81C404.427 136.56 404.303 137.303 404.11 138.03V138.23V138.13C404.315 138.287 404.475 138.495 404.574 138.734C404.672 138.973 404.705 139.234 404.67 139.49C404.56 139.84 404.36 140 404.34 140Z" fill="#EB996E"/>
<path d="M394.05 126L406.35 149.85C406.424 149.994 406.47 150.151 406.484 150.312C406.497 150.473 406.479 150.636 406.43 150.79C406.38 150.944 406.301 151.087 406.197 151.211C406.092 151.334 405.964 151.436 405.82 151.51C405.531 151.657 405.195 151.684 404.886 151.585C404.577 151.486 404.319 151.268 404.17 150.98L391.87 127.12L391.75 124.22L394.05 126Z" fill="#89BEB3"/>
<path d="M388.89 139.88L389.22 133.95L394.88 128.95C394.88 128.95 396.32 129.95 396.15 130.95C395.98 131.95 393.58 134.95 393.58 134.95C393.276 135.335 393.086 135.798 393.031 136.286C392.976 136.773 393.059 137.267 393.27 137.71" fill="#FFBE9D"/>
<path d="M270.74 219.08L262.53 222.06L253.6 248.02L271.68 232.74L270.74 219.08Z" fill="#89BEB3"/>
<path d="M386.94 152L370.63 177.72L344.47 191.53C344.47 191.53 340.32 189.14 338.31 189.53C336.84 190.001 335.538 190.886 334.56 192.08L338.56 225.77L348.46 218.44L382.24 199.52L402.07 162L386.94 152Z" fill="#89BEB3"/>
<path d="M280.92 202.23C277.898 204.393 275.551 207.368 274.15 210.81C272.37 215.09 261.03 234.44 254.62 245.62C252.28 249.69 252.07 256.83 255.31 260.22C259.21 264.3 263.87 262.71 269.56 260.86C272.11 260.03 283.56 242.41 283.56 242.41L280.92 202.23Z" fill="#89BEB3"/>
<path d="M286.24 278.62L279.23 218.31L280.92 202.23L298.77 194.63L321.88 193.12L343.89 195.54L338.74 257.4L344.37 292.29L282.73 295.08L286.24 278.62Z" fill="#89BEB3"/>
<path d="M286 278.6C285.85 278.6 284.18 265.18 282.25 248.6C280.32 232.02 278.88 218.6 279.02 218.54C279.16 218.48 280.84 231.95 282.77 248.54C284.7 265.13 286.12 278.58 286 278.6Z" fill="#263238"/>
<path d="M343.2 209.31C343.222 209.489 343.222 209.671 343.2 209.85C343.2 210.26 343.11 210.78 343.06 211.4L342.48 217.09C341.99 221.96 341.33 228.56 340.59 235.85C339.85 243.14 339.33 249.85 338.97 254.64C338.8 256.99 338.66 258.92 338.56 260.34C338.51 260.96 338.47 261.48 338.43 261.89C338.423 262.072 338.4 262.252 338.36 262.43C338.335 262.247 338.335 262.062 338.36 261.88C338.36 261.47 338.36 260.96 338.36 260.33C338.36 258.98 338.48 257.03 338.6 254.61C338.87 249.79 339.38 243.14 340.08 235.8C340.78 228.46 341.52 221.8 342.08 217.05C342.38 214.65 342.63 212.71 342.83 211.38C342.92 210.76 343 210.25 343.06 209.84C343.08 209.657 343.127 209.479 343.2 209.31Z" fill="#263238"/>
<path d="M332.59 269.35C332.297 269.782 331.962 270.184 331.59 270.55C331.203 271.011 330.786 271.446 330.34 271.85C329.82 272.33 329.26 272.92 328.56 273.46C327.818 274.086 327.043 274.674 326.24 275.22C325.4 275.84 324.42 276.39 323.41 276.99C318.924 279.484 313.949 280.968 308.83 281.34C307.719 281.422 306.604 281.445 305.49 281.41C304.517 281.399 303.545 281.332 302.58 281.21C301.784 281.13 300.993 281.006 300.21 280.84C299.615 280.744 299.028 280.61 298.45 280.44C297.954 280.339 297.468 280.192 297 280C297 279.89 299.13 280.55 302.64 280.87C303.593 280.97 304.551 281.017 305.51 281.01C306.51 281.01 307.65 280.96 308.81 280.89C311.323 280.666 313.808 280.197 316.23 279.49C318.651 278.754 320.995 277.786 323.23 276.6C324.23 276.02 325.23 275.49 326.05 274.89C326.859 274.372 327.637 273.808 328.38 273.2C331.11 271 332.51 269.27 332.59 269.35Z" fill="#263238"/>
<g opacity="0.3">
<path opacity="0.3" d="M300 280.61C297 279.75 296.83 276.93 298 275.71C299.17 274.49 301.05 274.34 302.72 274.58C304.358 274.981 306.034 275.208 307.72 275.26C310.46 275.07 312.72 273.16 314.66 271.18C316.6 269.2 318.37 266.98 320.87 265.85C323.37 264.72 326.87 265.11 328.17 267.52C328.541 268.312 328.709 269.185 328.656 270.058C328.604 270.932 328.333 271.778 327.87 272.52C326.921 273.993 325.653 275.233 324.16 276.15C320.667 278.537 316.712 280.167 312.552 280.935C308.391 281.703 304.115 281.592 300 280.61Z" fill="black"/>
</g>
<path d="M336.46 195.21C338.107 195.807 339.512 196.927 340.46 198.4C341.552 199.771 342.173 201.458 342.23 203.21C341.686 201.623 340.95 200.109 340.04 198.7C338.997 197.392 337.794 196.219 336.46 195.21Z" fill="#263238"/>
<path d="M252.26 257C252.144 256.63 252.08 256.247 252.07 255.86C251.958 254.807 251.935 253.747 252 252.69C252.245 249.183 253.388 245.797 255.32 242.86C257.47 239.42 259.44 236.33 260.89 234.1L262.63 231.47C262.822 231.134 263.057 230.824 263.33 230.55C263.193 230.903 263.015 231.239 262.8 231.55C262.37 232.29 261.8 233.19 261.2 234.26C259.83 236.54 257.91 239.67 255.77 243.1C253.877 245.974 252.71 249.265 252.37 252.69C252.14 255.33 252.37 257 252.26 257Z" fill="#263238"/>
<path d="M331.06 198.14C330.51 195.53 328.9 193.28 327.34 191.14C326.27 189.66 324.93 188.03 323.11 187.99C321.64 187.99 320.39 188.99 319.2 189.84C312.84 194.39 305.39 193.95 298.28 190.69L298.1 189.69C297.39 189.18 294.72 191.69 294.19 193.03C293.755 194.462 293.734 195.987 294.13 197.43C295.243 202.919 298.274 207.833 302.68 211.29C304.887 212.979 307.429 214.179 310.136 214.81C312.843 215.441 315.653 215.489 318.38 214.95C321.1 214.365 323.632 213.111 325.746 211.303C327.86 209.494 329.491 207.187 330.49 204.59C331.271 202.534 331.468 200.301 331.06 198.14Z" fill="#89BEB3"/>
<path d="M330.88 198.68C330.927 198.904 330.95 199.131 330.95 199.36C330.95 199.81 331.02 200.47 331.04 201.36C331.141 203.769 331.02 206.183 330.68 208.57C330.438 210.23 329.987 211.853 329.34 213.4C328.581 215.187 327.461 216.797 326.05 218.13C324.381 219.602 322.42 220.705 320.295 221.367C318.17 222.029 315.93 222.234 313.72 221.97C309.301 221.36 305.216 219.282 302.12 216.07C299.6 213.499 297.639 210.435 296.36 207.07C295.476 204.81 294.83 202.464 294.43 200.07C294.28 199.23 294.2 198.58 294.15 198.13C294.126 197.904 294.126 197.676 294.15 197.45C294.225 197.667 294.276 197.892 294.3 198.12C294.38 198.56 294.5 199.21 294.68 200.04C295.153 202.386 295.846 204.683 296.75 206.9C298.057 210.192 300.016 213.185 302.51 215.7C305.542 218.813 309.525 220.826 313.83 221.42C315.966 221.676 318.132 221.482 320.189 220.85C322.245 220.218 324.147 219.162 325.77 217.75C327.146 216.468 328.242 214.916 328.99 213.19C329.644 211.683 330.108 210.101 330.37 208.48C330.734 206.114 330.908 203.723 330.89 201.33C330.89 200.52 330.89 199.87 330.89 199.33C330.863 199.114 330.859 198.896 330.88 198.68Z" fill="#263238"/>
<g opacity="0.3">
<path opacity="0.3" d="M321.31 188.43C322.99 192.24 324.31 195.69 322.63 199.52C321.18 202.85 317.35 204.75 313.71 204.6C310.051 204.288 306.628 202.665 304.07 200.03C301.543 197.412 299.337 194.501 297.5 191.36L298.06 189.96L298.28 190.67C298.28 190.67 306.92 194.78 312.88 192.67C319.36 190.45 321.31 188.43 321.31 188.43Z" fill="black"/>
</g>
<path d="M327.73 205.18C327.522 205.456 327.28 205.704 327.01 205.92C326.305 206.54 325.549 207.098 324.75 207.59C322.105 209.246 319.103 210.247 315.993 210.51C312.883 210.773 309.755 210.289 306.87 209.1C305.999 208.745 305.159 208.317 304.36 207.82C304.054 207.659 303.775 207.453 303.53 207.21C303.58 207.13 304.81 207.94 307 208.75C309.853 209.822 312.909 210.246 315.947 209.99C318.984 209.734 321.926 208.805 324.56 207.27C326.59 206.11 327.67 205.1 327.73 205.18Z" fill="#263238"/>
<path d="M320.73 188.1C320.83 188.215 320.915 188.342 320.98 188.48C321.12 188.74 321.32 189.13 321.55 189.64C322.219 191.105 322.66 192.662 322.86 194.26C323.186 196.666 322.671 199.111 321.4 201.18C320.646 202.408 319.584 203.418 318.32 204.11C316.937 204.822 315.376 205.111 313.83 204.94C312.315 204.769 310.834 204.367 309.44 203.75C308.147 203.194 306.913 202.507 305.76 201.7C303.8 200.335 302.089 198.644 300.7 196.7C299.767 195.396 298.998 193.982 298.41 192.49C298.242 192.09 298.102 191.679 297.99 191.26C297.935 191.119 297.901 190.971 297.89 190.82C298.695 192.825 299.739 194.725 301 196.48C302.391 198.35 304.08 199.979 306 201.3C307.134 202.085 308.343 202.755 309.61 203.3C310.958 203.892 312.387 204.276 313.85 204.44C315.294 204.607 316.756 204.343 318.05 203.68C319.24 203.029 320.245 202.086 320.97 200.94C322.201 198.962 322.726 196.625 322.46 194.31C322.294 192.743 321.917 191.206 321.34 189.74C321 188.68 320.69 188.11 320.73 188.1Z" fill="#263238"/>
<path d="M343.25 287.38C343.047 287.406 342.843 287.406 342.64 287.38H340.89L334.43 287.3C328.99 287.3 321.43 287.37 313.16 287.83C304.89 288.29 297.37 289.06 291.96 289.7L285.56 290.5L283.82 290.72C283.614 290.736 283.406 290.736 283.2 290.72C283.394 290.647 283.595 290.597 283.8 290.57L285.53 290.26C287.03 290 289.21 289.67 291.92 289.26C297.32 288.52 304.82 287.7 313.13 287.26C321.44 286.82 328.99 286.76 334.44 286.89C337.16 286.95 339.37 287.03 340.89 287.12L342.64 287.24C342.848 287.26 343.053 287.307 343.25 287.38Z" fill="#263238"/>
<path d="M279.45 204C279.268 204.388 279.047 204.757 278.79 205.1C278.28 205.87 277.63 206.84 276.87 208C275.25 210.45 273.05 213.85 270.75 217.69C268.45 221.53 266.48 225.08 265.08 227.69L263.43 230.75C263.247 231.138 263.026 231.506 262.77 231.85C262.888 231.438 263.048 231.039 263.25 230.66C263.58 229.91 264.1 228.83 264.76 227.52C266.07 224.89 267.99 221.3 270.3 217.45C272.61 213.6 274.86 210.21 276.57 207.81C277.42 206.61 278.12 205.65 278.62 205C278.862 204.639 279.14 204.304 279.45 204Z" fill="#263238"/>
<path d="M398.79 168.45C397.933 168.057 397.113 167.589 396.34 167.05C394.87 166.12 392.87 164.8 390.7 163.27C388.53 161.74 386.6 160.27 385.24 159.27C384.47 158.729 383.751 158.12 383.09 157.45C383.924 157.882 384.715 158.394 385.45 158.98C387.01 160.07 388.91 161.4 391 162.88L396.55 166.77C397.348 167.259 398.098 167.821 398.79 168.45Z" fill="#263238"/>
<path d="M294.61 203.94C294.353 204.098 294.073 204.216 293.78 204.29C293.24 204.48 292.43 204.7 291.43 204.94C289.43 205.43 286.6 205.8 283.59 206.59C281.02 207.217 278.626 208.421 276.59 210.11C275.802 210.875 275.079 211.704 274.43 212.59C274.515 212.299 274.643 212.023 274.81 211.77C275.228 211.062 275.743 210.416 276.34 209.85C278.358 208.016 280.808 206.723 283.46 206.09C286.53 205.29 289.36 204.97 291.36 204.58C293.36 204.19 294.59 203.86 294.61 203.94Z" fill="#FAFAFA"/>
<path d="M294.37 200.2C293.61 200.593 292.813 200.908 291.99 201.14L286.18 203.14L280.39 205.22C279.621 205.558 278.82 205.819 278 206C278.725 205.543 279.5 205.171 280.31 204.89C281.76 204.27 283.79 203.47 286.06 202.66C288.33 201.85 290.41 201.2 291.93 200.76C292.72 200.485 293.539 200.297 294.37 200.2Z" fill="#FAFAFA"/>
<path d="M297 207.62C296.74 206.981 296.578 206.307 296.52 205.62C296.277 203.965 296.173 202.292 296.21 200.62C296.137 198.92 296.576 197.238 297.47 195.79C298.23 194.71 299.04 194.39 299.05 194.45C298.577 194.92 298.151 195.436 297.78 195.99C297.028 197.417 296.666 199.018 296.73 200.63C296.62 204.51 297.14 207.6 297 207.62Z" fill="#FAFAFA"/>
<path d="M299.91 204.41C299.86 204.41 299.56 204.1 299.29 203.41C298.944 202.514 298.837 201.543 298.979 200.593C299.121 199.643 299.507 198.746 300.1 197.99C300.55 197.42 300.94 197.17 300.98 197.22C300.281 198.27 299.779 199.439 299.5 200.67C299.403 201.931 299.542 203.2 299.91 204.41Z" fill="#FAFAFA"/>
<path d="M299.61 212.09C298.978 211.06 298.62 209.885 298.57 208.678C298.519 207.47 298.777 206.27 299.32 205.19C299.47 205.24 299 206.75 299.09 208.66C299.18 210.57 299.75 212 299.61 212.09Z" fill="#FAFAFA"/>
<path d="M340.42 199.11C340.42 199.26 338.42 199.04 335.99 199.19C333.56 199.34 331.61 199.77 331.57 199.62C332.946 198.979 334.442 198.638 335.96 198.62C337.465 198.458 338.986 198.626 340.42 199.11Z" fill="#FAFAFA"/>
<path d="M338.63 196.5C338.63 196.65 336.5 196.4 333.91 196.57C331.32 196.74 329.27 197.26 329.23 197.11C330.687 196.429 332.272 196.067 333.88 196.05C335.477 195.866 337.096 196.02 338.63 196.5Z" fill="#FAFAFA"/>
<path d="M344.93 195.43C344.93 195.51 344.55 195.43 343.99 195.43C343.263 195.422 342.559 195.679 342.007 196.152C341.456 196.624 341.094 197.281 340.99 198C340.88 198.55 340.93 198.92 340.85 198.94C340.77 198.96 340.6 198.6 340.62 197.94C340.631 197.521 340.729 197.11 340.909 196.731C341.088 196.353 341.345 196.016 341.662 195.743C341.98 195.47 342.351 195.266 342.752 195.145C343.153 195.024 343.574 194.988 343.99 195.04C344.63 195.14 345 195.38 344.93 195.43Z" fill="#FAFAFA"/>
<path d="M344.27 193.06C344.27 193.14 343.86 193.06 343.27 193.06C342.495 192.961 341.707 193.029 340.96 193.26C340.611 193.39 340.295 193.594 340.032 193.858C339.77 194.123 339.568 194.44 339.44 194.79C339.25 195.33 339.38 195.72 339.29 195.79C339.2 195.86 338.96 195.45 339.08 194.79C339.179 194.351 339.386 193.945 339.683 193.608C339.98 193.27 340.358 193.013 340.78 192.86C341.606 192.597 342.489 192.569 343.33 192.78C343.92 192.84 344.28 193 344.27 193.06Z" fill="#FAFAFA"/>
<path d="M385 158.38C384.937 158.561 384.857 158.735 384.76 158.9L384 160.32C383.28 161.62 382.29 163.38 381.1 165.53C379.91 167.68 378.37 170.33 376.73 173.21C375.9 174.64 375.08 176.21 374.07 177.71C373.045 179.315 371.713 180.701 370.15 181.79C368.581 182.824 366.955 183.769 365.28 184.62L360.69 187.09L352.89 191.24L347.62 194L346.18 194.72L345.66 194.95C345.799 194.819 345.958 194.712 346.13 194.63L347.53 193.82L352.73 190.91L360.47 186.65L365.05 184.16C366.702 183.309 368.307 182.371 369.86 181.35C373.06 179.24 374.62 175.78 376.33 172.96L380.79 165.33L383.79 160.21C384.14 159.65 384.42 159.21 384.64 158.83C384.738 158.663 384.859 158.512 385 158.38Z" fill="#FAFAFA"/>
<path d="M368.55 178.52C368.29 178.789 367.998 179.024 367.68 179.22C367.11 179.65 366.26 180.22 365.21 180.96C363.09 182.39 360.13 184.29 356.78 186.28C353.43 188.27 350.32 189.94 348.05 191.1C346.91 191.68 345.98 192.1 345.34 192.43C345.023 192.606 344.688 192.747 344.34 192.85C344.618 192.604 344.931 192.402 345.27 192.25L347.9 190.77C350.13 189.53 353.19 187.77 356.54 185.83C359.89 183.89 362.88 182 365.04 180.65L367.6 179.06C367.893 178.841 368.212 178.659 368.55 178.52Z" fill="#FAFAFA"/>
<path d="M274.2 212.38C274.33 212.46 270.99 218.54 266.76 225.97C262.53 233.4 258.98 239.37 258.86 239.3C258.74 239.23 262.07 233.14 266.31 225.71C270.55 218.28 274.08 212.31 274.2 212.38Z" fill="#FAFAFA"/>
<path d="M461.28 466.58C460.593 459.801 457.415 453.519 452.36 448.95C447.305 444.381 440.734 441.852 433.92 441.852C427.106 441.852 420.535 444.381 415.48 448.95C410.425 453.519 407.247 459.801 406.56 466.58H402.23V475.1H465.61V466.58H461.28ZM433.92 450.65C438.397 450.652 442.724 452.261 446.114 455.185C449.504 458.108 451.731 462.152 452.39 466.58H415.44C416.099 462.151 418.328 458.105 421.72 455.181C425.112 452.257 429.442 450.649 433.92 450.65Z" fill="#455A64"/>
<path d="M411.8 460.44C411.75 460.58 410.96 460.44 410.04 460.09C409.12 459.74 408.42 459.37 408.47 459.24C408.52 459.11 409.3 459.24 410.22 459.6C411.14 459.96 411.84 460.31 411.8 460.44Z" fill="#263238"/>
<path d="M414.52 455.11C414.43 455.23 413.73 454.85 412.94 454.27C412.15 453.69 411.59 453.12 411.68 453.01C411.77 452.9 412.47 453.27 413.25 453.85C414.03 454.43 414.61 455 414.52 455.11Z" fill="#263238"/>
<path d="M418.64 450.8C418.52 450.88 417.96 450.31 417.4 449.51C416.84 448.71 416.46 448.01 416.58 447.92C416.7 447.83 417.25 448.42 417.82 449.21C418.39 450 418.75 450.72 418.64 450.8Z" fill="#263238"/>
<path d="M424.9 447C424.76 447 424.37 446.36 424.01 445.45C423.65 444.54 423.48 443.75 423.62 443.7C423.76 443.65 424.14 444.35 424.5 445.26C424.86 446.17 425 447 424.9 447Z" fill="#263238"/>
<path d="M432.43 445.22C432.29 445.22 432.03 444.49 431.85 443.53C431.67 442.57 431.63 441.77 431.77 441.74C431.91 441.71 432.18 442.47 432.36 443.43C432.54 444.39 432.57 445.19 432.43 445.22Z" fill="#263238"/>
<path d="M456.73 463.26C456.73 463.12 457.43 462.81 458.37 462.56C459.31 462.31 460.11 462.23 460.15 462.37C460.19 462.51 459.45 462.82 458.5 463.06C457.55 463.3 456.76 463.4 456.73 463.26Z" fill="#263238"/>
<path d="M454.51 457.69C454.44 457.57 455.06 457.06 455.89 456.55C456.72 456.04 457.47 455.74 457.54 455.86C457.61 455.98 457 456.5 456.16 457C455.32 457.5 454.59 457.81 454.51 457.69Z" fill="#263238"/>
<path d="M451.23 452.5C451.12 452.4 451.55 451.73 452.23 450.99C452.91 450.25 453.48 449.73 453.59 449.82C453.7 449.91 453.27 450.59 452.59 451.33C451.91 452.07 451.34 452.59 451.23 452.5Z" fill="#263238"/>
<path d="M445.73 448.68C445.61 448.62 445.86 447.86 446.29 446.98C446.72 446.1 447.19 445.45 447.29 445.52C447.39 445.59 447.17 446.34 446.73 447.22C446.29 448.1 445.86 448.75 445.73 448.68Z" fill="#263238"/>
<path d="M438.59 446.16C438.45 446.16 438.59 445.32 438.83 444.39C439.07 443.46 439.44 442.72 439.58 442.76C439.72 442.8 439.58 443.59 439.33 444.53C439.08 445.47 438.73 446.2 438.59 446.16Z" fill="#263238"/>
<path d="M372.75 364.1H364.57V474.97H372.75V364.1Z" fill="#89BEB3"/>
<path d="M372.83 468.38C371.38 468.727 369.87 468.727 368.42 468.38C369.87 468.033 371.38 468.033 372.83 468.38Z" fill="#263238"/>
<path d="M372.83 457.6C371.38 457.947 369.87 457.947 368.42 457.6C369.87 457.253 371.38 457.253 372.83 457.6Z" fill="#263238"/>
<path d="M372.83 446.82C371.38 447.167 369.87 447.167 368.42 446.82C369.87 446.473 371.38 446.473 372.83 446.82Z" fill="#263238"/>
<path d="M372.83 436C371.38 436.347 369.87 436.347 368.42 436C369.87 435.653 371.38 435.653 372.83 436Z" fill="#263238"/>
<path d="M372.83 425.26C371.38 425.607 369.87 425.607 368.42 425.26C369.87 424.913 371.38 424.913 372.83 425.26Z" fill="#263238"/>
<path d="M372.83 414.48C371.38 414.827 369.87 414.827 368.42 414.48C369.87 414.134 371.38 414.134 372.83 414.48Z" fill="#263238"/>
<path d="M372.83 403.7C371.38 404.047 369.87 404.047 368.42 403.7C369.87 403.354 371.38 403.354 372.83 403.7Z" fill="#263238"/>
<path d="M372.83 392.92C371.38 393.267 369.87 393.267 368.42 392.92C369.87 392.573 371.38 392.573 372.83 392.92Z" fill="#263238"/>
<path d="M372.83 382.14C371.38 382.487 369.87 382.487 368.42 382.14C369.87 381.793 371.38 381.793 372.83 382.14Z" fill="#263238"/>
<path d="M372.83 371.35C371.38 371.697 369.87 371.697 368.42 371.35C369.87 371.003 371.38 371.003 372.83 371.35Z" fill="#263238"/>
<path d="M380.62 429.55V474.71H442.52L380.62 429.55ZM390.32 448.3L414.66 466.07H390.32V448.3Z" fill="#89BEB3"/>
<path d="M387.9 435.05C388.02 435.13 387.62 435.92 387.01 436.82C386.4 437.72 385.8 438.39 385.68 438.3C385.56 438.21 385.97 437.43 386.58 436.53C387.19 435.63 387.78 435 387.9 435.05Z" fill="#263238"/>
<path d="M394.8 440.12C394.92 440.2 394.55 440.97 393.97 441.83C393.39 442.69 392.83 443.33 392.71 443.25C392.59 443.17 392.96 442.41 393.54 441.54C394.12 440.67 394.68 440 394.8 440.12Z" fill="#263238"/>
<path d="M402.22 445.73C402.34 445.81 401.97 446.57 401.4 447.43C400.83 448.29 400.26 448.93 400.14 448.85C400.02 448.77 400.39 448.01 400.97 447.15C401.55 446.29 402.11 445.65 402.22 445.73Z" fill="#263238"/>
<path d="M409.65 451.33C409.77 451.41 409.4 452.17 408.83 453.04C408.26 453.91 407.69 454.54 407.57 454.46C407.45 454.38 407.82 453.61 408.39 452.75C408.96 451.89 409.53 451.25 409.65 451.33Z" fill="#263238"/>
<path d="M417.08 456.93C417.2 457.01 416.83 457.78 416.25 458.64C415.67 459.5 415.11 460.14 414.99 460.06C414.87 459.98 415.24 459.22 415.82 458.35C416.4 457.48 417 456.85 417.08 456.93Z" fill="#263238"/>
<path d="M424.51 462.54C424.63 462.62 424.26 463.38 423.68 464.24C423.1 465.1 422.54 465.74 422.42 465.66C422.3 465.58 422.67 464.82 423.25 463.95C423.83 463.08 424.39 462.46 424.51 462.54Z" fill="#263238"/>
<path d="M431.93 468.14C432.05 468.22 431.68 468.98 431.11 469.85C430.54 470.72 429.97 471.35 429.85 471.27C429.73 471.19 430.1 470.42 430.67 469.56C431.24 468.7 431.81 468.06 431.93 468.14Z" fill="#263238"/>
<path d="M481.44 475C481.44 475.14 379.81 475.26 254.44 475.26C129.07 475.26 27.44 475.14 27.44 475C27.44 474.86 129.05 474.74 254.44 474.74C379.83 474.74 481.44 474.83 481.44 475Z" fill="#263238"/>
</svg>
